<svg width="73" height="64" viewBox="0 0 73 64" fill="none" xmlns="http://www.w3.org/2000/svg">
<path d="M71.6105 44.8093C71.6065 41.9978 71.5924 36.2438 71.5924 34.1995C71.5924 34.1995 71.5924 34.1708 71.5938 34.1155C58.9139 26.8207 39.8208 15.7853 31.1492 10.7661C23.8064 15.0137 9.02845 23.5528 0.479004 28.4641C0.479004 30.8491 0.496412 37.915 0.495001 40.0114C8.29353 44.527 28.7149 56.3313 41.2697 63.5502C50.1821 58.4269 64.7544 50.0055 71.6117 46.0366V45.9286C71.6117 45.6548 71.6112 45.272 71.6105 44.8093Z" fill="white"/>
<path d="M30.9801 10.8632C23.6084 15.1283 9.06922 23.5293 0.571533 28.4112C7.01079 32.1406 30.2946 45.6011 41.0879 51.7912C48.9688 47.2744 66.2264 37.305 71.5925 34.1988C71.5925 34.1988 71.5925 34.1701 71.5939 34.1148C58.9139 26.8199 39.8208 15.7846 31.1493 10.7653L30.9801 10.8632Z" fill="#F4C058"/>
<path d="M72.0811 44.8093C72.0784 42.9116 72.0748 41.0139 72.0703 39.1162C72.067 37.4504 72.0279 35.7801 72.0644 34.1148C72.0644 34.0327 72.0429 33.952 72.002 33.8808C71.9612 33.8095 71.9024 33.7502 71.8315 33.7088C66.2326 30.4874 60.6364 27.2614 55.0429 24.0308C49.4948 20.8285 43.9479 17.624 38.4023 14.4173C36.0634 13.0651 33.7249 11.7124 31.3867 10.3591C31.3145 10.3174 31.2326 10.2955 31.1492 10.2955C31.0658 10.2955 30.9839 10.3174 30.9117 10.3591C27.1852 12.5157 23.4577 14.6704 19.7294 16.8232C15.3626 19.3456 10.9948 21.8659 6.62594 24.3842C4.49866 25.61 2.37067 26.8346 0.241974 28.0581C0.17127 28.0997 0.11262 28.1591 0.0717877 28.2303C0.0309551 28.3015 0.00934375 28.382 0.00907677 28.4641C0.00907677 31.1814 0.0131544 33.8987 0.0213098 36.616C0.0225644 37.2866 0.0235838 37.9574 0.024368 38.6283C-0.0109416 39.1097 -0.00787364 39.5931 0.0335427 40.0739C0.0876502 40.3946 0.438878 40.5223 0.692242 40.6696L1.3373 41.0424L2.75632 41.8635C5.13517 43.2406 7.51495 44.6171 9.89568 45.9928C12.8225 47.6847 15.7496 49.3761 18.6771 51.0669C21.789 52.8641 24.9015 54.6606 28.0146 56.4565C31.006 58.1816 33.9983 59.9068 36.9915 61.632C38.3207 62.3972 39.631 63.2333 40.9943 63.9353C41.3963 64.1423 41.7739 63.8038 42.1183 63.6059L43.1063 63.0381C43.7996 62.6391 44.4928 62.24 45.186 61.8409C48.2738 60.0629 51.3606 58.2828 54.4461 56.5007C57.5443 54.7128 60.6418 52.9237 63.7384 51.1335C66.274 49.6679 68.8092 48.2015 71.3441 46.7343C71.6125 46.5788 72.0181 46.4362 72.0733 46.0977C72.1103 45.6687 72.1127 45.2375 72.0806 44.8081C72.0806 44.2028 71.1396 44.2016 71.1396 44.8081C71.1396 45.2171 71.1396 45.6262 71.1396 46.0354L71.3725 45.6291C67.7887 47.7034 64.2039 49.7761 60.6181 51.8472C56.2738 54.3566 51.9288 56.8642 47.5831 59.3703C45.3996 60.6289 43.2153 61.8863 41.0305 63.1427H41.5055C35.79 59.8563 30.0779 56.5642 24.3692 53.2665C18.7298 50.0114 13.0913 46.754 7.45379 43.4942C5.21343 42.1988 2.97346 40.9027 0.733881 39.606L0.966778 40.0123C0.96866 36.8802 0.957133 33.7483 0.952663 30.6162C0.951565 29.8991 0.950938 29.1821 0.950781 28.465L0.717649 28.8713C4.73509 26.5635 8.75001 24.2511 12.7624 21.934C17.0493 19.4591 21.3362 16.9826 25.6231 14.5046C27.5446 13.3941 29.4658 12.2831 31.3867 11.1716H30.9117C35.5527 13.8578 40.195 16.542 44.8385 19.2242C50.6528 22.5837 56.4684 25.9408 62.2853 29.2955C65.3083 31.0387 68.3321 32.7806 71.3568 34.5211L71.1236 34.1148C71.0872 35.7801 71.1262 37.4504 71.1295 39.1162C71.1333 41.0139 71.1369 42.9116 71.1404 44.8093C71.1411 45.4148 72.0821 45.4157 72.0811 44.8093Z" fill="#211715"/>
<path d="M40.7112 51.7597C40.7112 55.0118 40.7168 58.2638 40.7281 61.5159C40.7292 62.1746 40.73 62.8325 40.7305 63.4895C40.7305 64.095 41.6715 64.0959 41.6715 63.4895C41.6715 60.3136 41.6597 57.1377 41.6545 53.9618C41.6533 53.2274 41.6525 52.4929 41.6522 51.7585C41.6522 51.1532 40.7112 51.152 40.7112 51.7585V51.7597Z" fill="#211715"/>
<path d="M0.80345 29.087C2.7027 30.1875 4.60242 31.2871 6.50261 32.3857C9.17473 33.9315 11.8474 35.4763 14.5206 37.0201C17.555 38.7734 20.5898 40.5259 23.6248 42.2777C26.6107 44.0008 29.5972 45.7229 32.5843 47.4438C35.1107 48.8991 37.6381 50.3526 40.1664 51.8044L40.9441 52.2514C41.4701 52.553 41.9449 51.7404 41.4188 51.4388C38.9751 50.0375 36.5327 48.6339 34.0918 47.2278C31.1387 45.5275 28.1866 43.8258 25.2353 42.1229C22.1841 40.3612 19.1332 38.5991 16.0824 36.8366C13.3427 35.2537 10.6032 33.6702 7.864 32.086C5.84665 30.9193 3.8297 29.7521 1.81314 28.5843L1.27842 28.2735C0.753341 27.9694 0.279078 28.7822 0.80345 29.0861V29.087Z" fill="#211715"/>
<path d="M41.1869 55.3174C39.0789 54.1087 36.9723 52.8976 34.8669 51.6842C32.2985 50.2052 29.7307 48.725 27.1637 47.2436C24.5159 45.7164 21.8686 44.1879 19.2219 42.6583C16.8324 41.2782 14.4432 39.8973 12.0543 38.5156C10.3031 37.5028 8.55197 36.4896 6.80093 35.4762L6.33396 35.2056C5.80888 34.9017 5.33462 35.7145 5.85899 36.0182C7.50715 36.9728 9.1557 37.9269 10.8046 38.8802C13.1352 40.2279 15.466 41.5752 17.797 42.9221C20.4302 44.4433 23.0637 45.964 25.6976 47.484C28.2957 48.9835 30.8943 50.4819 33.4933 51.9792C35.6733 53.2354 37.855 54.4901 40.0384 55.7432L40.7119 56.1295C41.2382 56.4313 41.7127 55.6185 41.1869 55.3169V55.3174Z" fill="#211715"/>
<path d="M38.6043 57.6416C36.5625 56.4707 34.5236 55.2945 32.4878 54.1129C31.9627 53.8087 31.4884 54.6217 32.0128 54.9254C34.0496 56.105 36.0884 57.2812 38.1293 58.4542C38.6555 58.756 39.13 57.9432 38.6043 57.6416Z" fill="#211715"/>
<path d="M58.6731 54.8372C57.5867 55.4611 54.0636 57.4967 52.4611 58.4191C50.9148 57.531 48.1722 55.9504 46.1244 54.7687C48.0596 53.6555 50.1881 52.4299 52.3411 51.1868C54.4428 52.4005 57.2025 53.9931 58.6731 54.8372Z" fill="#1D4ED8"/>
<path d="M46.1244 55.2393H46.1268L45.8894 55.1751C47.857 56.3127 49.8263 57.4478 51.7972 58.5803C51.9781 58.7157 52.1817 58.8176 52.3985 58.8812C52.6338 58.9129 52.8521 58.737 53.0469 58.6248C53.4178 58.4112 53.7887 58.1973 54.1596 57.9832C55.0028 57.4971 55.8459 57.0109 56.689 56.5247C57.4293 56.0978 58.1698 55.671 58.9105 55.2445C58.9804 55.2021 59.0381 55.1425 59.0782 55.0714C59.1184 55.0002 59.1394 54.9199 59.1394 54.8382C59.1394 54.7565 59.1184 54.6762 59.0782 54.605C59.0381 54.5338 58.9804 54.4742 58.9105 54.4319C56.7978 53.219 54.6872 52.0022 52.5787 50.7815C52.0532 50.4783 51.5789 51.2911 52.1038 51.5941C54.2135 52.8125 56.3241 54.0293 58.4355 55.2445V54.431C56.363 55.6215 54.2928 56.8155 52.2249 58.0129H52.6997C51.6646 57.4179 50.6295 56.8219 49.5944 56.225C49.0141 55.8906 48.4338 55.5562 47.8535 55.2216L46.9897 54.7229C46.7481 54.5834 46.4103 54.2973 46.1247 54.2973C45.5191 54.2973 45.5182 55.2383 46.1247 55.2383L46.1244 55.2393Z" fill="#211715"/>
<path d="M67.4685 41.907C64.5737 43.5834 61.6777 45.2574 58.7805 46.9291C54.8846 49.1786 50.9873 51.4259 47.0886 53.6711C45.0724 54.8317 43.0554 55.9911 41.0377 57.1493C40.5122 57.45 40.9858 58.2635 41.5127 57.9616C45.2388 55.8287 48.9601 53.6871 52.6767 51.5367C56.3593 49.4137 60.0408 47.2886 63.7212 45.1615C65.1286 44.3476 66.536 43.5335 67.9432 42.7191C68.4671 42.4159 67.9938 41.6024 67.4683 41.9068L67.4685 41.907Z" fill="#211715"/>
<path d="M41.3767 52.1679C45.4652 49.8248 49.5496 47.4745 53.6299 45.117C58.0319 42.5785 62.4326 40.0378 66.8319 37.4949C68.498 36.5321 70.1638 35.5688 71.8293 34.6051C72.3532 34.3016 71.8799 33.4881 71.3544 33.7925C67.8785 35.8045 64.4013 37.8142 60.9229 39.8215C56.3528 42.4607 51.7811 45.0973 47.2079 47.7313C45.1063 48.9409 43.0042 50.149 40.9015 51.3553C40.3762 51.6564 40.8498 52.4699 41.3767 52.1679Z" fill="#211715"/>
<path d="M61.6904 27.5628C61.6874 25.4639 61.6768 21.1683 61.6768 19.6415C61.6768 19.6415 61.6768 19.6201 61.6779 19.5789C52.212 14.1327 37.9575 5.89421 31.4839 2.14716C26.0026 5.31879 14.9694 11.6938 8.58679 15.3604C8.58679 17.1408 8.59997 22.4158 8.59879 23.9809C14.421 27.352 29.6666 36.1645 39.0401 41.5541C45.6939 37.7291 56.5728 31.4423 61.6921 28.4791V28.3984C61.6911 28.194 61.6909 27.9082 61.6904 27.5628Z" fill="white"/>
<path d="M31.0729 2.38473C25.4669 5.62812 14.8139 11.7825 8.58679 15.3604C8.58679 17.1408 8.59997 22.4158 8.59879 23.9809C11.1308 25.447 15.4446 27.9423 20.2836 30.7375C20.2801 28.5892 20.2709 23.843 20.27 22.0373C30.1112 16.3524 38.4023 11.5583 43.0786 8.85104C38.4459 6.1746 34.253 3.75012 31.4839 2.14642L31.0729 2.38473Z" fill="#3B82F6"/>
<path d="M62.1608 27.5629C62.1568 24.9046 62.0902 22.2373 62.1483 19.579C62.1484 19.4968 62.1268 19.4161 62.0859 19.3448C62.045 19.2735 61.9862 19.2142 61.9152 19.1727C57.7365 16.7685 53.5597 14.3611 49.3846 11.9506C45.2433 9.55995 41.1029 7.16824 36.9635 4.77544C35.2163 3.76371 33.4689 2.75221 31.7211 1.74095C31.6489 1.69934 31.567 1.67743 31.4837 1.67743C31.4003 1.67743 31.3184 1.69934 31.2462 1.74095C28.4602 3.3532 25.6735 4.96419 22.8861 6.57392C19.6343 8.452 16.3818 10.3287 13.1284 12.2039C11.5358 13.1214 9.94275 14.0382 8.34933 14.9542C8.27856 14.9959 8.21985 15.0553 8.17898 15.1265C8.13811 15.1977 8.11647 15.2784 8.11619 15.3605C8.11619 17.4128 8.11933 19.4653 8.1256 21.5179C8.12655 22.0148 8.12725 22.5116 8.12772 23.0085C8.12772 23.343 8.0555 23.7806 8.14513 24.1061C8.24088 24.4538 8.89558 24.6966 9.19199 24.8681L10.2741 25.4951C14.2394 27.7894 18.2056 30.082 22.1728 32.3728C26.7232 35.001 31.2749 37.6266 35.8279 40.2494L37.3857 41.1462L38.103 41.5588C38.3434 41.719 38.5955 41.8611 38.857 41.9839C39.1675 42.1039 39.4578 41.8555 39.7168 41.7066L40.4995 41.2563C41.0271 40.9528 41.5546 40.6492 42.082 40.3454C44.3795 39.0222 46.6763 37.6979 48.9725 36.3723C53.1778 33.945 57.3819 31.5155 61.5847 29.0838C61.8416 28.9351 62.1366 28.8191 62.1606 28.479C62.182 28.1769 62.1606 27.8657 62.1606 27.5629C62.1606 26.9574 61.2196 26.9564 61.2196 27.5629C61.2196 27.8683 61.2196 28.1736 61.2196 28.479L61.4527 28.0727C58.7831 29.618 56.1127 31.162 53.4415 32.7048C50.1921 34.582 46.9417 36.458 43.6904 38.3326C42.0608 39.2717 40.4309 40.2101 38.8008 41.1476H39.2757C35.0141 38.6973 30.755 36.2428 26.4984 33.7843C22.2923 31.3565 18.0873 28.9271 13.8833 26.496C12.2004 25.5224 10.518 24.5486 8.83629 23.5747L9.06919 23.981C9.0706 21.6494 9.06213 19.3176 9.0586 16.9861C9.0586 16.4441 9.05813 15.9022 9.05719 15.3605L8.8243 15.7665C11.8275 14.0414 14.8287 12.3127 17.828 10.5805C21.0214 8.73799 24.214 6.89418 27.4057 5.04904C28.8445 4.21782 30.283 3.38598 31.7211 2.55351H31.2462C34.71 4.55862 38.1748 6.562 41.6404 8.56367C45.9802 11.0713 50.3209 13.577 54.6627 16.0808C56.9211 17.3826 59.1803 18.6843 61.4402 19.986L61.2073 19.5797C61.149 22.238 61.2158 24.9043 61.2198 27.5636C61.2208 28.1682 62.1618 28.1694 62.1608 27.5629Z" fill="#211715"/>
<path d="M38.5029 32.7518C38.5029 34.7427 38.517 36.7339 38.5173 38.7248C38.5173 39.3303 39.4583 39.3313 39.4583 38.7248C39.4583 36.7339 39.4442 34.7427 39.4439 32.7518C39.4439 32.1463 38.5029 32.1453 38.5029 32.7518Z" fill="#211715"/>
<path d="M39.3015 32.461C35.7308 30.4135 32.164 28.3599 28.6009 26.3C24.7568 24.0819 20.9136 21.8619 17.0715 19.6399C15.6157 18.7986 14.1606 17.9568 12.7065 17.1145C12.1816 16.8103 11.7071 17.6233 12.2315 17.927C15.267 19.685 18.3035 21.4409 21.3411 23.195C25.3323 25.5004 29.3248 27.8042 33.3184 30.1064C35.1533 31.1634 36.9893 32.2191 38.8265 33.2735C39.3527 33.5751 39.8272 32.7626 39.3015 32.461Z" fill="#211715"/>
<path d="M39.1797 33.1594C41.76 31.6805 44.338 30.1971 46.9135 28.7092C49.6819 27.1125 52.4496 25.5146 55.2166 23.9155C56.2762 23.3039 57.3355 22.6912 58.3946 22.0775C58.9188 21.7743 58.4454 20.9608 57.9199 21.265C55.726 22.5353 53.5312 23.8038 51.3357 25.0704C48.4624 26.7298 45.588 28.3875 42.7127 30.0435C41.3771 30.812 40.0411 31.5798 38.7047 32.3469C38.1794 32.648 38.6529 33.4612 39.1797 33.1594Z" fill="#211715"/>
<path d="M20.5338 22.428C23.9777 20.439 27.4209 18.4495 30.8636 16.4595C33.6595 14.8441 36.4552 13.2275 39.2507 11.6096C40.4464 10.9179 41.642 10.2261 42.8376 9.53397C43.3615 9.23073 42.8884 8.41724 42.3626 8.72165C40.0506 10.0601 37.7381 11.3979 35.4251 12.7352C32.3141 14.5341 29.203 16.3325 26.0915 18.1305C24.0802 19.2923 22.0696 20.4541 20.0597 21.6159C19.5354 21.9187 20.0087 22.7322 20.5345 22.4285L20.5338 22.428Z" fill="#211715"/>
<path d="M19.7982 22.0333C19.8013 24.7017 19.8126 27.3702 19.8128 30.0386C19.8128 30.6441 20.7538 30.6451 20.7538 30.0386C20.7538 27.3702 20.7423 24.7017 20.7392 22.0333C20.7392 21.4278 19.7982 21.4268 19.7982 22.0333Z" fill="#211715"/>
<path d="M34.6865 22.2107C34.6609 22.7147 34.5328 23.2081 34.3101 23.661C33.8429 24.5785 32.9414 25.2063 31.9922 25.6063C31.043 26.0062 30.907 25.9024 29.9248 26.2123C29.1591 26.4539 28.3574 26.8018 28.0292 27.5767C27.8916 27.9737 27.81 28.388 27.7867 28.8075C27.7161 30.3948 27.7288 32.046 27.709 33.6796C27.7103 33.7935 27.6751 33.905 27.6087 33.9976C27.5423 34.0903 27.448 34.1593 27.3397 34.1948C26.22 34.5211 25.0401 34.584 23.8921 34.3785C23.7733 34.3392 23.6676 34.2682 23.5863 34.1731C23.4621 34.056 23.3726 33.907 23.3275 33.7424C23.239 33.0009 23.1965 32.2866 23.1713 31.5717C22.3496 31.754 21.4104 32.0693 20.5365 31.8561C19.9288 31.7077 19.3591 31.2445 19.2661 30.626L19.189 30.1151C19.0532 27.6169 18.9175 27.9315 18.782 25.4336C18.7364 24.593 18.6997 23.7069 19.0836 22.9576C19.4144 22.3974 19.8711 21.922 20.4175 21.5689C21.4709 20.7987 22.6134 20.1583 23.8201 19.6615C23.8201 19.6615 33.1144 21.89 34.6865 22.2107Z" fill="#A0A0A0"/>
<path d="M32.7855 23.0479C33.3266 22.7449 34.0236 22.4038 34.6965 22.0006C35.813 21.3327 36.8744 20.4882 37.0939 19.355C37.169 18.8647 37.1667 18.3656 37.0868 17.876C36.872 16.1417 36.4618 13.9278 35.381 12.5012C34.7223 11.628 33.6825 10.5016 32.6686 9.98194C32.6686 9.98194 30.9096 9.13034 29.2008 9.01906C26.4573 8.84004 25.0533 10.0097 25.0533 10.0097C23.4635 11.2143 22.3611 12.9515 21.948 14.9029L21.4695 17.6581L21.2966 18.6518L32.7855 23.0479Z" fill="white"/>
<path d="M21.7878 36.6249C21.7377 36.3786 21.7418 36.1244 21.7999 35.8799C21.8579 35.6353 21.9685 35.4064 22.124 35.2089C22.4799 34.7858 22.9145 34.4358 23.4038 34.1783C23.8978 34.5653 25.9049 34.6399 27.3414 34.1948C27.3902 34.1798 27.4364 34.1575 27.4785 34.1287C27.4962 34.2964 27.5075 34.3999 27.5075 34.3999C27.6568 35.7644 26.8304 36.313 26.3058 36.6251C25.6811 36.9963 25.0082 37.2796 24.3062 37.4671C23.8843 37.5972 23.4404 37.6407 23.0013 37.5948C22.7821 37.5689 22.5713 37.4955 22.3835 37.3798C22.1956 37.264 22.0353 37.1087 21.9137 36.9246C21.858 36.831 21.8157 36.7302 21.7878 36.6249Z" fill="white"/>
<path d="M17.5854 33.6683C17.6491 33.4885 17.7398 33.3193 17.8543 33.1668C18.241 32.718 18.7119 32.3493 19.2404 32.0815C19.5096 31.896 19.8148 31.7693 20.1362 31.7096C20.2643 31.7737 20.399 31.8232 20.538 31.8574C21.412 32.0705 22.3509 31.7555 23.1728 31.5729C23.1905 32.0884 23.2178 32.6031 23.2646 33.1282L22.8955 33.1891C22.923 33.7772 22.4015 34.236 21.8952 34.5368C21.2913 34.8957 20.6407 35.1695 19.9619 35.3506C19.5541 35.4767 19.1248 35.5183 18.7003 35.4729C18.4883 35.4486 18.2843 35.3779 18.1026 35.2661C17.921 35.1542 17.7661 35.0038 17.6489 34.8255C17.5546 34.6489 17.5 34.4538 17.489 34.2539C17.478 34.054 17.5109 33.8541 17.5854 33.6683Z" fill="white"/>
<path d="M25.2271 5.41486C25.1619 6.7911 25.6233 8.14052 26.5175 9.18874C27.3281 10.1183 28.4732 10.69 29.7033 10.7793C30.9335 10.8685 32.1491 10.4682 33.0854 9.66535C33.7322 9.69924 34.3696 9.49962 34.8816 9.10287C35.111 8.92425 35.2913 8.69016 35.4053 8.42265C35.5194 8.15513 35.5635 7.863 35.5334 7.57375C35.4969 7.37306 35.4116 7.18444 35.285 7.02446C35.1585 6.86448 34.9946 6.73804 34.8077 6.65627C35.1608 5.73802 35.2008 4.72884 34.9214 3.78554C34.642 2.84223 34.0589 2.01763 33.2626 1.43984C31.1696 -0.0469337 28.2108 0.157734 26.4909 2.11384C25.7032 3.03644 25.2569 4.20206 25.2271 5.41486Z" fill="white"/>
<path d="M25.9086 2.93713C25.6029 3.48483 25.3958 4.08206 25.297 4.7015C26.5408 4.81172 27.7938 4.66075 28.9758 4.25829C29.009 4.24706 29.0441 4.24281 29.0789 4.24581C29.1138 4.24881 29.1476 4.25898 29.1784 4.2757C29.3266 4.35921 29.1476 4.68315 29.0638 4.83136C29.5908 4.9798 30.8811 4.73726 31.4514 4.42391C31.7682 5.19458 32.092 5.59616 32.7135 5.88716L34.3819 6.55174C34.5292 6.55984 34.6738 6.59535 34.8081 6.65643C35.1608 5.73794 35.2005 4.72871 34.9209 3.7854C34.6413 2.84209 34.0581 2.01747 33.2618 1.43953C31.1695 -0.0470134 28.2108 0.157654 26.4909 2.11375C26.2686 2.36713 26.0735 2.6431 25.9086 2.93713Z" fill="white"/>
<path d="M27.0361 34.4006C27.0837 34.6956 27.0521 34.9979 26.9447 35.2767C26.8372 35.5555 26.6577 35.8007 26.4244 35.9874C25.7479 36.4692 24.9857 36.8176 24.1787 37.014C23.5261 37.1869 22.2292 37.3003 22.2165 36.2998C22.2052 35.4059 23.1279 34.8883 23.7941 34.494C24.3152 34.1861 23.8411 33.3724 23.3191 33.6815C22.5317 34.1468 21.7411 34.6695 21.4077 35.5635C21.2398 35.9733 21.2289 36.4306 21.3771 36.8479C21.5253 37.2652 21.8223 37.6132 22.2111 37.8252C23.1152 38.2987 24.1811 38.0449 25.0894 37.7151C25.8317 37.4698 26.5256 37.0969 27.1398 36.6132C27.4497 36.3413 27.6882 35.9975 27.8341 35.6119C27.9801 35.2263 28.0291 34.8108 27.9768 34.4018C27.9736 34.278 27.923 34.1602 27.8355 34.0727C27.7479 33.9851 27.6301 33.9345 27.5063 33.9313C27.3818 33.9322 27.2627 33.9821 27.1746 34.0701C27.0866 34.1582 27.0367 34.2773 27.0358 34.4018L27.0361 34.4006Z" fill="#211715"/>
<path d="M19.9486 31.2643C19.5326 31.3768 19.139 31.5598 18.7848 31.8053C18.4321 32.008 18.1024 32.2484 17.8015 32.5221C17.2223 33.0743 16.8414 33.936 17.0979 34.7335C17.3686 35.5771 18.2539 35.9867 19.0914 35.9646C19.9945 35.941 20.9202 35.5806 21.7151 35.1739C22.4973 34.774 23.3734 34.1665 23.3668 33.1886C23.3628 32.5833 22.4216 32.5819 22.4258 33.1886C22.4305 33.8798 21.4105 34.2964 20.8953 34.5272C20.5234 34.6922 20.1376 34.824 19.7425 34.9212C19.3448 35.0513 18.9171 35.0587 18.515 34.9426C17.8351 34.6876 17.8521 33.948 18.2393 33.4326C18.4845 33.139 18.7813 32.8927 19.1151 32.7059C19.442 32.4651 19.8089 32.2843 20.1989 32.1716C20.7918 32.0507 20.5407 31.1436 19.9486 31.2643Z" fill="#211715"/>
<path d="M23.695 19.2068C22.3578 19.7506 21.0973 20.4668 19.9456 21.3373C19.369 21.7352 18.9038 22.2741 18.5941 22.9026C18.3401 23.5628 18.2366 24.2713 18.2911 24.9766C18.3252 25.9917 18.4229 26.9997 18.5447 28.0073C18.6548 28.9177 18.6494 29.8455 18.8127 30.7477C18.8852 31.0694 19.0355 31.3684 19.2503 31.6186C19.4652 31.8688 19.7381 32.0625 20.0451 32.1827C20.8356 32.5222 21.7062 32.3959 22.519 32.2121C23.1095 32.0788 22.8597 31.1714 22.269 31.3048C21.3908 31.5033 19.9087 31.6577 19.7134 30.4544C19.5845 29.6604 19.5857 28.8415 19.4888 28.0343C19.3871 27.1874 19.3036 26.3441 19.2566 25.4925C19.1901 24.8929 19.2105 24.2868 19.3173 23.693C19.474 23.122 19.815 22.6186 20.2872 22.2613C21.3911 21.3651 22.6243 20.6412 23.9449 20.1142C24.0631 20.0778 24.163 19.9976 24.2242 19.8901C24.2854 19.7826 24.3033 19.6557 24.2742 19.5355C24.2406 19.4154 24.1609 19.3135 24.0526 19.2518C23.9442 19.1902 23.8159 19.1737 23.6955 19.2061L23.695 19.2068Z" fill="#211715"/>
<path d="M23.5973 23.7438C22.7911 24.3042 22.5888 25.1828 22.5742 26.1064C22.5594 27.0434 22.6093 27.9797 22.6384 28.9158C22.6768 30.1438 22.6714 31.3734 22.7537 32.5998C22.7918 33.1677 22.75 33.8619 23.1108 34.3326C23.4566 34.7843 23.881 34.8791 24.4176 34.9356C24.9327 34.9859 25.4516 34.9841 25.9663 34.9302C26.5017 34.8981 27.0305 34.7942 27.5382 34.6213C28.1522 34.382 28.1791 33.7934 28.1845 33.2241C28.1908 32.5774 28.1932 31.9303 28.1995 31.2838C28.2056 30.6442 28.2153 30.0045 28.2365 29.3651C28.2226 28.8414 28.2916 28.3188 28.4409 27.8167C28.7549 26.9663 29.8698 26.6861 30.6546 26.4967C31.6723 26.2511 32.6519 25.9321 33.4992 25.2906C34.0116 24.9075 34.4286 24.4113 34.7177 23.8407C35.0069 23.27 35.1603 22.6403 35.1662 22.0006C35.1897 21.3951 34.2487 21.396 34.2252 22.0006C34.2231 22.4821 34.1117 22.9568 33.8995 23.389C33.6872 23.8211 33.3796 24.1995 32.9998 24.4954C32.3265 24.9987 31.5505 25.3472 30.727 25.5159C29.8884 25.7023 28.9975 25.9394 28.311 26.4805C27.5486 27.0804 27.3604 27.9971 27.3117 28.921C27.2498 30.0871 27.2571 31.2582 27.2491 32.4262C27.2472 32.7118 27.245 32.9974 27.2423 33.283C27.2584 33.4159 27.2569 33.5503 27.2378 33.6829C27.2112 33.7584 27.2223 33.7299 27.1727 33.7574C26.9569 33.8427 26.73 33.8965 26.4989 33.9169C26.2601 33.96 26.0192 33.9903 25.7771 34.0078C25.3244 34.0453 24.8691 34.0417 24.4169 33.9969C24.2687 33.9956 24.1222 33.9653 23.9857 33.9075C23.7667 33.7772 23.7726 33.5248 23.7505 33.3055C23.6427 32.198 23.6256 31.0848 23.6034 29.9728C23.5823 28.9165 23.5284 27.8609 23.5143 26.8044C23.5091 26.4066 23.5025 26.0057 23.5331 25.6086C23.5357 25.5757 23.5383 25.5428 23.5416 25.5101C23.5512 25.416 23.5355 25.5388 23.5442 25.4945C23.5672 25.3691 23.6013 25.246 23.646 25.1266C23.7283 24.8998 23.8756 24.7023 24.0695 24.5587C24.5635 24.2155 24.093 23.3994 23.5947 23.7462L23.5973 23.7438Z" fill="#211715"/>
<path d="M24.8153 9.60344C23.125 10.8749 21.9466 12.7104 21.4943 14.7766C21.3684 15.3673 22.2753 15.6197 22.4016 15.0269C22.7853 13.1953 23.8094 11.5604 25.29 10.416C25.3948 10.3503 25.4706 10.2471 25.502 10.1275C25.5334 10.0079 25.518 9.88079 25.4589 9.77212C25.3954 9.66502 25.2922 9.58726 25.1717 9.55569C25.0512 9.52412 24.9232 9.54128 24.8153 9.60344Z" fill="#211715"/>
<path d="M21.9291 19.6594C21.4059 19.3332 21.1883 18.782 21.1029 18.1969C21.0071 17.5408 21.1193 16.7059 22.0735 16.4673C22.4164 16.3992 22.7724 16.4656 23.0677 16.653C23.3783 16.8338 23.6301 17.1007 23.7925 17.4214C23.9549 17.7421 24.0211 18.1029 23.983 18.4604C23.9186 19.2367 23.1853 19.9507 22.4132 19.838C22.2412 19.8128 22.0763 19.752 21.9291 19.6594Z" fill="white"/>
<path d="M22.1665 19.2531C22.0586 19.1841 21.9632 19.0973 21.8842 18.9964C21.9263 19.0489 21.8652 18.968 21.8565 18.9548C21.8342 18.9211 21.813 18.8867 21.7929 18.8515C21.7769 18.8235 21.7617 18.7948 21.7459 18.7659C21.7459 18.7659 21.6878 18.6334 21.7141 18.6998C21.6611 18.5606 21.6204 18.417 21.5923 18.2707C21.5838 18.2294 21.576 18.1881 21.5687 18.1467C21.5633 18.1147 21.5509 18.0009 21.5643 18.127C21.5582 18.0677 21.552 18.0082 21.549 17.9484C21.5445 17.8386 21.5469 17.7286 21.5563 17.619C21.5629 17.5308 21.5563 17.619 21.5539 17.6348C21.56 17.6047 21.5647 17.5746 21.5713 17.5445C21.5862 17.4784 21.6073 17.4158 21.6283 17.3513C21.5939 17.4572 21.6485 17.3123 21.6661 17.2808C21.6838 17.2492 21.7793 17.1307 21.7097 17.2078C21.7482 17.1647 21.7889 17.1236 21.8315 17.0846C21.8861 17.0352 21.7398 17.1373 21.8485 17.0721C21.8849 17.0502 21.919 17.0267 21.9576 17.0065C21.9835 16.9926 22.0103 16.9789 22.0374 16.9672C21.9698 16.9966 22.044 16.9672 22.0552 16.9629C22.1252 16.9399 22.1965 16.921 22.2686 16.9062C22.1635 16.9241 22.3121 16.9093 22.351 16.91C22.3898 16.9107 22.4286 16.9128 22.4672 16.9171C22.5003 16.9201 22.4989 16.9201 22.4632 16.9171C22.4881 16.9215 22.5126 16.9267 22.537 16.9328C22.6744 16.9652 22.8029 17.0275 22.9134 17.1151C22.9188 17.1189 22.984 17.1681 22.937 17.1302C22.9624 17.15 22.9868 17.1709 23.0111 17.1918C23.0758 17.248 23.1371 17.3081 23.1946 17.3718C23.3455 17.5399 23.4484 17.7456 23.4924 17.9672C23.4907 17.9595 23.5187 18.1055 23.5084 18.0399C23.498 17.9743 23.5164 18.1253 23.5157 18.1166C23.5209 18.1891 23.5224 18.2618 23.5201 18.3344C23.519 18.3761 23.5169 18.418 23.5133 18.4596C23.515 18.4389 23.5305 18.3796 23.511 18.4763C23.4948 18.5544 23.4737 18.6314 23.4479 18.7068C23.4009 18.848 23.4682 18.6713 23.4296 18.749C23.4082 18.792 23.3856 18.8343 23.3609 18.8755C23.3324 18.933 23.2947 18.9856 23.2494 19.031C23.1964 19.0902 23.139 19.1453 23.0776 19.1957C23.1287 19.1541 23.0682 19.2023 23.0598 19.2077C23.02 19.2331 22.981 19.2587 22.9398 19.2816C22.8356 19.3381 22.7203 19.3709 22.602 19.3778C22.4474 19.3827 22.2952 19.3386 22.1672 19.2519C22.0595 19.1889 21.9311 19.1713 21.8104 19.203C21.6897 19.2346 21.5864 19.313 21.5235 19.4207C21.4605 19.5285 21.4429 19.6568 21.4745 19.7775C21.5062 19.8983 21.5845 20.0015 21.6923 20.0645C22.5627 20.582 23.5743 20.2306 24.1214 19.4309C24.3475 19.0716 24.4667 18.6553 24.4651 18.2307C24.4635 17.8061 24.3411 17.3907 24.1123 17.033C23.6462 16.3165 22.7713 15.7836 21.9009 16.0255C21.5349 16.1268 21.2115 16.3437 20.9789 16.644C20.7464 16.9442 20.6172 17.3116 20.6106 17.6913C20.5525 18.5935 20.9197 19.5641 21.6927 20.0645C21.8005 20.1275 21.9288 20.1451 22.0496 20.1134C22.1703 20.0817 22.2735 20.0034 22.3365 19.8957C22.3995 19.7879 22.4171 19.6596 22.3854 19.5388C22.3538 19.4181 22.2754 19.3149 22.1677 19.2519L22.1665 19.2531Z" fill="#211715"/>
<path d="M24.955 13.4511V18.6956C24.955 19.3011 25.896 19.302 25.896 18.6956V13.4511C25.896 12.8456 24.955 12.8447 24.955 13.4511Z" fill="#211715"/>
<path d="M25.2622 19.5876C23.8152 19.833 22.3383 20.3976 20.2043 20.7517C21.5196 21.3868 23.9933 22.6033 26.3587 23.7864C28.4141 22.9494 28.9992 22.8035 30.2855 22.3104C28.1334 21.2 25.2664 19.5869 25.2622 19.5876Z" fill="white"/>
<path d="M25.1372 19.1341C23.4312 19.4296 21.7896 20.0097 20.0793 20.2979C19.6879 20.364 19.6156 20.9884 19.9671 21.1577C21.3577 21.8287 22.7431 22.5125 24.1249 23.1988C24.5402 23.4047 24.9551 23.611 25.3696 23.8177C25.587 23.9262 25.8032 24.0372 26.0215 24.1433C26.133 24.2037 26.258 24.2347 26.3848 24.2331C26.5116 24.2316 26.6359 24.1977 26.7458 24.1346C27.3947 23.873 28.048 23.623 28.7059 23.3846C29.2748 23.1797 29.8457 22.9807 30.4106 22.7647C30.7585 22.6318 30.9135 22.106 30.523 21.9049C29.4084 21.3288 28.3053 20.7305 27.206 20.1262C26.6395 19.8149 26.0824 19.4623 25.5 19.1814C24.9568 18.9198 24.479 19.731 25.025 19.994C25.6075 20.2748 26.1645 20.6275 26.731 20.9387C27.8306 21.5431 28.9337 22.1411 30.048 22.7174L30.1605 21.8574C28.8537 22.357 27.5309 22.8064 26.2339 23.3333L26.5964 23.3804C24.5498 22.357 22.5031 21.3386 20.4421 20.3457L20.3296 21.2055C22.0399 20.9173 23.6812 20.3372 25.3875 20.0417C25.5074 20.0078 25.6091 19.9281 25.6707 19.8198C25.7324 19.7116 25.7489 19.5834 25.7169 19.463C25.6813 19.344 25.6012 19.2433 25.4932 19.182C25.3851 19.1207 25.2576 19.1036 25.1372 19.1341Z" fill="#211715"/>
<path d="M29.0509 21.7668C29.1897 20.6423 30.3664 19.7046 31.8774 20.3553C32.1056 21.0568 32.502 22.1173 32.7457 23.0037C32.4135 23.2726 32.1263 23.506 32.1263 23.506C31.64 24.0927 30.5666 23.9871 29.9827 23.6318C29.666 23.4419 29.4101 23.1655 29.245 22.8351C29.0799 22.5047 29.0126 22.1341 29.0509 21.7668Z" fill="white"/>
<path d="M31.7146 19.7945C31.0841 19.5935 30.4003 19.6447 29.8067 19.9373C29.2981 20.2077 28.9074 20.6564 28.7095 21.1973C28.2437 22.4206 28.9803 23.7982 30.1789 24.2369C30.9121 24.5056 31.915 24.4663 32.4589 23.837C32.5444 23.7473 32.5921 23.6282 32.5921 23.5042C32.5921 23.3803 32.5444 23.2612 32.4589 23.1715C32.3701 23.0843 32.2507 23.0355 32.1263 23.0355C32.0018 23.0355 31.8824 23.0843 31.7936 23.1715C31.7701 23.1976 31.7466 23.2216 31.7231 23.2472C31.7075 23.2646 31.6362 23.3213 31.7094 23.2658C31.6597 23.3015 31.6074 23.3334 31.553 23.3613C31.5294 23.3736 31.4473 23.4002 31.533 23.3715C31.5064 23.3804 31.4805 23.3898 31.4537 23.3978C31.3858 23.4182 31.3167 23.4339 31.2467 23.4448C31.3408 23.43 31.2467 23.4448 31.2215 23.4448C31.185 23.4463 31.1488 23.4493 31.1123 23.45C31.0462 23.45 30.9806 23.4465 30.9145 23.4439C30.891 23.4439 30.7948 23.4319 30.8865 23.4439C30.8576 23.4401 30.8286 23.435 30.7999 23.4298C30.7219 23.4154 30.6446 23.3971 30.5684 23.375C30.5077 23.3573 30.4487 23.3364 30.3897 23.3145C30.4802 23.3479 30.3276 23.2844 30.3021 23.271C30.2483 23.2414 30.1962 23.2087 30.1462 23.1729C30.0316 23.0934 30.184 23.2058 30.1212 23.1538C30.0888 23.1268 30.0568 23.0997 30.0257 23.0713C29.9806 23.0301 29.9368 22.9875 29.8952 22.9428C29.8773 22.9238 29.8596 22.904 29.8422 22.8842C29.8422 22.8842 29.7615 22.7854 29.8055 22.8419C29.8495 22.8984 29.7752 22.7989 29.7747 22.7979C29.7606 22.7774 29.7467 22.7567 29.7335 22.7358C29.6975 22.6796 29.6646 22.6215 29.635 22.5617C29.6216 22.5351 29.6093 22.5081 29.5971 22.4813C29.6035 22.4954 29.631 22.5754 29.6046 22.4961C29.5867 22.441 29.567 22.3874 29.5519 22.3314C29.5402 22.2877 29.5308 22.2434 29.5216 22.199C29.5199 22.1905 29.5039 22.0813 29.5143 22.1618C29.5244 22.2397 29.5119 22.1235 29.511 22.1082C29.5065 22.0038 29.5086 21.8993 29.5173 21.7953C29.5112 21.9009 29.5148 21.8113 29.5251 21.7588C29.5375 21.6949 29.5532 21.6317 29.5722 21.5694C29.5849 21.528 29.6013 21.4878 29.615 21.4466C29.6479 21.3467 29.5764 21.5097 29.6122 21.4544C29.6263 21.4323 29.6357 21.4048 29.6477 21.3815C29.6699 21.3379 29.6939 21.2955 29.7197 21.2542C29.7364 21.2269 29.8486 21.0742 29.7667 21.1759C29.8278 21.0989 29.8945 21.0268 29.9664 20.9599C29.9841 20.9434 30.0972 20.8508 30.045 20.8907C29.9836 20.9378 30.0721 20.8726 30.0777 20.8689C30.1057 20.8505 30.1332 20.8319 30.1619 20.8145C30.209 20.7853 30.2593 20.7585 30.3097 20.7338C30.3156 20.731 30.4179 20.6868 30.3468 20.7157C30.2798 20.7435 30.3897 20.7011 30.4033 20.6964C30.4641 20.6755 30.526 20.6578 30.5887 20.6433C30.6301 20.6338 30.7936 20.6129 30.6769 20.6235C30.8161 20.6124 30.956 20.6111 31.0954 20.6195C31.1156 20.6195 31.1876 20.6303 31.09 20.6167C31.1309 20.6226 31.1716 20.6296 31.2121 20.6376C31.2965 20.6546 31.3796 20.6764 31.4622 20.7011C31.5217 20.7176 31.584 20.7221 31.6453 20.7144C31.7066 20.7068 31.7658 20.6872 31.8196 20.6567C31.8733 20.6261 31.9205 20.5853 31.9585 20.5366C31.9965 20.4878 32.0245 20.4321 32.0409 20.3725C32.0573 20.3129 32.0618 20.2507 32.0542 20.1894C32.0466 20.128 32.0269 20.0688 31.9964 20.0151C31.9659 19.9613 31.9251 19.9141 31.8763 19.8762C31.8276 19.8382 31.7718 19.8102 31.7122 19.7938L31.7146 19.7945Z" fill="#211715"/>
<path d="M33.1553 16.4944C33.1374 16.3688 33.1482 16.4399 33.1553 16.513C33.1605 16.5747 33.1653 16.6363 33.1699 16.6979C33.1824 16.8739 33.1918 17.0508 33.2 17.2268C33.2176 17.613 33.2306 18.0005 33.2214 18.387C33.2198 18.4628 33.2172 18.5383 33.2122 18.6138C33.2094 18.6578 33.2066 18.8255 33.2071 18.6994C33.2071 18.8241 33.1645 18.6994 33.2245 18.6893C33.1584 18.7015 33.0318 18.8368 32.9629 18.8926C32.4898 19.2744 32.0301 19.6724 31.5561 20.0531C31.4961 20.1111 31.4531 20.1844 31.4318 20.2651C31.4105 20.3458 31.4116 20.4308 31.4352 20.5109C31.729 21.4022 32.0614 22.2811 32.3093 23.1871C32.3293 23.2561 32.3646 23.3196 32.4126 23.3731C32.4606 23.4265 32.5201 23.4683 32.5866 23.4955C32.6531 23.5227 32.7249 23.5344 32.7966 23.5299C32.8682 23.5254 32.938 23.5047 33.0005 23.4693C34.9514 22.378 37.6777 21.266 37.6199 18.6183C37.5692 17.4538 37.3862 16.2988 37.0746 15.1756C36.83 14.1049 36.3759 13.0931 35.7383 12.1988C34.9667 11.1872 34.0467 10.1777 32.9073 9.57668C32.3719 9.29438 31.8958 10.1062 32.4324 10.3892C33.3414 10.8687 34.0829 11.641 34.7289 12.4279C35.3331 13.1798 35.7794 14.0459 36.0411 14.9742C36.3197 15.9423 36.5148 16.9324 36.6243 17.9337C36.6916 18.4941 36.7447 19.0977 36.525 19.6329C36.3339 20.0477 36.0532 20.415 35.7031 20.7082C34.7783 21.5467 33.6039 22.0534 32.5255 22.6568L33.2167 22.9391C32.9688 22.0332 32.6363 21.1543 32.3425 20.2629L32.2214 20.7205C32.7283 20.3135 33.2184 19.8858 33.727 19.4807C34.0798 19.2005 34.1422 18.9269 34.1594 18.4952C34.1945 17.7443 34.1625 16.9917 34.0638 16.2465C34.0302 16.1264 33.9505 16.0245 33.8422 15.9628C33.7338 15.9012 33.6055 15.8847 33.4851 15.9171C33.3664 15.9529 33.266 16.0329 33.2047 16.1406C33.1434 16.2483 33.1259 16.3755 33.1558 16.4958L33.1553 16.4944Z" fill="#211715"/>
<path d="M35.3348 6.58353C35.6422 5.62099 35.6491 4.58767 35.3547 3.62109C35.0602 2.65452 34.4784 1.80053 33.6866 1.17279C32.9061 0.575989 31.9845 0.19093 31.0114 0.0549183C30.0383 -0.0810931 29.0465 0.0365553 28.1322 0.396464C26.2031 1.18784 24.9935 2.98892 24.7836 5.03747C24.6712 6.05405 24.8299 7.08227 25.2436 8.01765C25.6573 8.95303 26.3112 9.76224 27.1389 10.3631C29.0647 11.708 31.8494 11.4713 33.5526 9.87514C33.9955 9.46017 33.3291 8.79582 32.8873 9.20962C32.2562 9.77582 31.4714 10.1421 30.6321 10.2619C29.7927 10.3818 28.9367 10.25 28.1724 9.88314C26.5887 9.092 25.7044 7.39255 25.6947 5.65759C25.6856 3.9899 26.4791 2.36692 27.9491 1.52425C28.657 1.13452 29.4529 0.932678 30.2609 0.937991C31.0689 0.943303 31.8621 1.15559 32.5647 1.5546C33.3802 2.01253 34.0116 2.73907 34.3514 3.61039C34.6912 4.48172 34.7183 5.44391 34.4282 6.33299C34.2418 6.91053 35.1499 7.15801 35.3355 6.58306L35.3348 6.58353Z" fill="#211715"/>
<path d="M34.3826 7.02303C34.4934 7.03103 34.3311 7.00256 34.4297 7.02844C34.4716 7.03926 34.5139 7.0482 34.5553 7.06138C34.5788 7.06914 34.6753 7.11501 34.604 7.07878C34.6428 7.09855 34.6814 7.11854 34.7183 7.1416C34.7353 7.15195 34.8275 7.21876 34.7654 7.16912C34.7993 7.19655 34.8317 7.22585 34.8623 7.25687C34.8934 7.28745 34.9227 7.31989 34.9498 7.35403C34.8948 7.28345 34.9668 7.38531 34.9764 7.40108C34.9991 7.43829 35.0196 7.47686 35.0376 7.51658C35.0002 7.43283 35.0458 7.54928 35.0512 7.56834C35.0638 7.61076 35.0734 7.65399 35.0802 7.69773C35.0667 7.60504 35.0787 7.73513 35.0802 7.75466C35.0802 7.80171 35.078 7.8464 35.0754 7.89251C35.0698 7.99767 35.0914 7.85652 35.0656 7.95038C35.0446 8.02708 35.0037 8.17528 34.9901 8.20704C34.9255 8.34672 34.8412 8.4764 34.7397 8.59215C34.6247 8.72166 34.4863 8.82843 34.3318 8.90691C34.1745 9.0006 34.0042 9.07074 33.8265 9.11511C33.7279 9.14294 33.6277 9.16516 33.5266 9.18168C33.4932 9.18686 33.4932 9.18686 33.5266 9.18168C33.5016 9.18474 33.4767 9.18709 33.4518 9.18921C33.3941 9.19415 33.3365 9.1965 33.2788 9.19791C33.1541 9.19791 33.0344 9.24748 32.9462 9.33572C32.8579 9.42396 32.8083 9.54363 32.8083 9.66841C32.8083 9.7932 32.8579 9.91287 32.9462 10.0011C33.0344 10.0893 33.1541 10.1389 33.2788 10.1389C34.4012 10.1114 35.5354 9.50374 35.9167 8.40277C36.0079 8.15196 36.0407 7.88366 36.0126 7.61827C35.9844 7.35288 35.8961 7.09741 35.7544 6.87129C35.6021 6.64303 35.3992 6.45302 35.1614 6.31612C34.9236 6.17921 34.6574 6.09909 34.3836 6.08203C34.259 6.08271 34.1397 6.1325 34.0516 6.22059C33.9635 6.30868 33.9138 6.42796 33.9131 6.55253C33.916 6.67639 33.9665 6.79437 34.0541 6.88198C34.1417 6.96959 34.2597 7.0201 34.3836 7.02303H34.3826Z" fill="#211715"/>
<path d="M28.195 7.12646C28.189 7.2365 28.1587 7.34386 28.1062 7.44076C28.0537 7.53767 27.9804 7.62171 27.8915 7.68682C27.7652 7.76779 27.6125 7.79663 27.4654 7.76728C27.3651 7.74945 27.2703 7.70821 27.1888 7.6469C27.1074 7.58559 27.0415 7.50594 26.9966 7.41441C26.9316 7.26758 26.9147 7.10391 26.9485 6.94693C26.9824 6.78994 27.0651 6.64772 27.1848 6.54069C27.3015 6.44362 27.4507 6.39431 27.6022 6.40264C27.7538 6.41098 27.8967 6.47634 28.0021 6.58562C28.0723 6.65582 28.1261 6.74077 28.1594 6.83431C28.1928 6.92785 28.2049 7.02765 28.195 7.12646Z" fill="#211715"/>
<path d="M31.0556 7.71065C31.0496 7.82067 31.0192 7.92799 30.9667 8.02489C30.9143 8.12178 30.841 8.20584 30.7521 8.27101C30.6258 8.35214 30.473 8.38107 30.3258 8.3517C30.2255 8.3338 30.1308 8.29253 30.0494 8.23123C29.968 8.16992 29.9021 8.09031 29.8572 7.99883C29.7922 7.85197 29.7753 7.68826 29.8091 7.53123C29.843 7.37421 29.9257 7.23194 30.0454 7.12487C30.1621 7.0278 30.3112 6.9785 30.4628 6.98688C30.6144 6.99526 30.7571 7.0607 30.8624 7.17004C30.9327 7.24022 30.9864 7.32513 31.0198 7.41862C31.0532 7.51211 31.0654 7.61186 31.0556 7.71065Z" fill="#211715"/>
<path d="M30.9986 4.54978C31.1497 4.95131 31.3629 5.32664 31.6305 5.66204C31.8646 5.93062 32.1533 6.14613 32.4774 6.29416C32.5881 6.35447 32.7174 6.37125 32.8399 6.34121C32.9292 6.31664 33.0092 6.26627 33.07 6.1964C33.1308 6.12653 33.1696 6.04027 33.1816 5.94844C33.1936 5.8566 33.1782 5.76328 33.1374 5.68015C33.0966 5.59702 33.0321 5.52779 32.9521 5.48114C32.7928 5.40739 32.6419 5.31685 32.5018 5.21107L32.5959 5.2847C32.4601 5.17817 32.3382 5.05503 32.2329 4.91818L32.3063 5.01346C32.1355 4.77848 31.9943 4.52335 31.8859 4.25384L31.933 4.36605C31.9236 4.34394 31.9142 4.32159 31.905 4.29901C31.8685 4.18233 31.792 4.08232 31.6888 4.01671C31.6354 3.98549 31.5765 3.9651 31.5152 3.9567C31.454 3.9483 31.3917 3.95204 31.3319 3.96773C31.2721 3.98342 31.2159 4.01073 31.1667 4.04812C31.1175 4.08551 31.0761 4.13223 31.0449 4.18562C31.0124 4.23947 30.9914 4.29951 30.9833 4.36193C30.9752 4.42434 30.9801 4.48775 30.9979 4.54814L30.9986 4.54978Z" fill="#211715"/>
<path d="M31.214 4.01932C30.6769 4.30162 29.7585 4.52158 29.189 4.37925L29.4713 5.07041C29.6524 4.74671 29.85 4.29668 29.5473 3.9765C29.1979 3.60669 28.7004 3.86711 28.3005 3.9765C27.3711 4.21859 26.4086 4.30844 25.4504 4.24257C24.8453 4.20893 24.8472 5.14993 25.4504 5.18357C26.0877 5.22142 26.7272 5.19937 27.3604 5.1177C27.6587 5.07841 27.9549 5.0276 28.248 4.95891C28.4 4.92362 28.5508 4.88441 28.7004 4.84128C28.7844 4.81776 28.8676 4.7907 28.9507 4.76365C28.9841 4.75306 29.0175 4.74201 29.0507 4.73048C29.1165 4.70695 29.1172 4.70695 29.053 4.73048L28.8455 4.60956L28.8806 4.64132L28.7597 4.43383C28.7126 4.32138 28.8006 4.33126 28.747 4.42559C28.7157 4.48111 28.6886 4.53922 28.6573 4.59497C28.622 4.65751 28.6012 4.72725 28.5967 4.79894C28.5921 4.87064 28.6039 4.94243 28.631 5.00894C28.6582 5.07545 28.7001 5.13494 28.7535 5.18295C28.807 5.23096 28.8706 5.26624 28.9396 5.28614C29.399 5.37337 29.8714 5.36536 30.3276 5.26261C30.8019 5.19158 31.2619 5.04597 31.6906 4.83117C32.2265 4.54887 31.7516 3.73608 31.2157 4.01861L31.214 4.01932Z" fill="#211715"/>
</svg>