<svg width="42" height="38" viewBox="0 0 42 38" fill="none" xmlns="http://www.w3.org/2000/svg">
  <path d="M41.7132 26.1014C41.7108 24.4637 41.7026 21.112 41.7026 19.9212C41.7026 19.9212 41.7026 19.9045 41.7034 19.8723C34.3174 15.6231 23.1956 9.19498 18.1445 6.27124C13.8672 8.74551 5.25911 13.7195 0.279053 16.5804C0.279053 17.9696 0.289193 22.0855 0.288371 23.3066C4.83101 25.937 16.7264 32.813 24.0396 37.018C29.2311 34.0337 37.7195 29.1282 41.7139 26.8163V26.7534C41.7139 26.5939 41.7136 26.371 41.7132 26.1014Z" fill="white"/>
  <path d="M18.0459 6.32782C13.7518 8.81223 5.28279 13.7058 0.332886 16.5495C4.08375 18.7219 17.6466 26.5627 23.9337 30.1684C28.5243 27.5374 38.5769 21.7302 41.7026 19.9208C41.7026 19.9208 41.7026 19.9041 41.7034 19.8719C34.3173 15.6226 23.1956 9.19455 18.1444 6.27081L18.0459 6.32782Z" fill="#F4C058"/>
  <path d="M41.9873 26.1014C41.9857 24.996 41.9836 23.8906 41.981 22.7852C41.979 21.8149 41.9563 20.8419 41.9775 19.8719C41.9775 19.824 41.965 19.777 41.9412 19.7355C41.9174 19.694 41.8832 19.6595 41.8419 19.6353C38.5805 17.7589 35.3207 15.8798 32.0625 13.9979C28.8307 12.1326 25.5997 10.2659 22.3693 8.39809C21.007 7.61042 19.6448 6.82244 18.2827 6.03413C18.2407 6.00989 18.193 5.99713 18.1444 5.99713C18.0959 5.99713 18.0481 6.00989 18.0061 6.03413C15.8354 7.29036 13.6641 8.54549 11.4924 9.79953C8.94874 11.2688 6.4045 12.7369 3.85961 14.2038C2.62047 14.9178 1.38092 15.6311 0.14095 16.3438C0.0997646 16.3681 0.0656014 16.4026 0.0418163 16.4441C0.0180313 16.4856 0.00544273 16.5325 0.00528722 16.5803C0.00528722 18.1632 0.00766246 19.746 0.0124129 21.3288C0.0131438 21.7194 0.0137376 22.1102 0.0141944 22.501C-0.00637347 22.7814 -0.00458639 23.0629 0.0195387 23.343C0.0510562 23.5298 0.255646 23.6042 0.403231 23.69L0.778975 23.9072L1.60556 24.3855C2.99124 25.1876 4.37746 25.9894 5.76424 26.7908C7.46911 27.7763 9.17416 28.7616 10.8794 29.7465C12.6921 30.7933 14.5051 31.8398 16.3185 32.8859C18.061 33.8908 19.804 34.8957 21.5476 35.9006C22.3218 36.3464 23.0851 36.8334 23.8792 37.2423C24.1134 37.3629 24.3333 37.1657 24.5339 37.0505L25.1095 36.7197C25.5132 36.4872 25.917 36.2548 26.3208 36.0223C28.1195 34.9866 29.9175 33.9497 31.7149 32.9116C33.5196 31.8702 35.3238 30.8281 37.1277 29.7852C38.6046 28.9315 40.0814 28.0774 41.5579 27.2227C41.7143 27.1321 41.9505 27.0491 41.9827 26.8519C42.0042 26.602 42.0057 26.3508 41.987 26.1007C41.987 25.7481 41.4389 25.7474 41.4389 26.1007C41.4389 26.339 41.4389 26.5773 41.4389 26.8156L41.5745 26.5789C39.487 27.7872 37.3988 28.9946 35.3101 30.201C32.7795 31.6627 30.2486 33.1234 27.7172 34.5832C26.4453 35.3163 25.1729 36.0488 23.9003 36.7806H24.1769C20.8477 34.8663 17.5204 32.9486 14.1951 31.0277C10.9101 29.1316 7.62569 27.2342 4.34183 25.3354C3.03682 24.5808 1.73204 23.8258 0.427486 23.0705L0.563148 23.3071C0.564245 21.4827 0.55753 19.6584 0.554927 17.8339C0.554287 17.4162 0.553922 16.9986 0.55383 16.5809L0.418031 16.8175C2.75819 15.4732 5.09688 14.1263 7.43412 12.7766C9.93123 11.3349 12.4283 9.89234 14.9254 8.44893C16.0447 7.80204 17.1638 7.15488 18.2827 6.50745H18.0061C20.7095 8.07218 23.4136 9.63573 26.1184 11.1981C29.5052 13.155 32.8928 15.1105 36.2812 17.0646C38.0421 18.08 39.8035 19.0947 41.5653 20.1085L41.4295 19.8719C41.4083 20.8419 41.431 21.8149 41.433 22.7852C41.4352 23.8906 41.4373 24.996 41.4393 26.1014C41.4397 26.4541 41.9878 26.4547 41.9873 26.1014Z" fill="#211715"/>
  <path d="M23.7142 30.15C23.7142 32.0444 23.7175 33.9387 23.7241 35.8331C23.7247 36.2167 23.7252 36.5999 23.7255 36.9826C23.7255 37.3354 24.2736 37.3359 24.2736 36.9826C24.2736 35.1327 24.2667 33.2827 24.2637 31.4328C24.263 31.005 24.2625 30.5772 24.2624 30.1493C24.2624 29.7968 23.7142 29.7961 23.7142 30.1493V30.15Z" fill="#211715"/>
  <path d="M0.468021 16.9432C1.57433 17.5842 2.68092 18.2247 3.78778 18.8647C5.34429 19.7651 6.90113 20.6649 8.45828 21.5642C10.2258 22.5855 11.9935 23.6063 13.7615 24.6268C15.5008 25.6305 17.2404 26.6336 18.9804 27.636C20.452 28.4837 21.9242 29.3304 23.3969 30.1761L23.85 30.4364C24.1564 30.6121 24.4329 30.1388 24.1265 29.9631C22.703 29.1468 21.2803 28.3292 19.8585 27.5102C18.1383 26.5197 16.4187 25.5285 14.6996 24.5366C12.9223 23.5104 11.1451 22.484 9.36804 21.4573C7.77215 20.5353 6.1764 19.6129 4.58079 18.6901C3.40569 18.0105 2.23081 17.3306 1.05617 16.6503L0.744691 16.4693C0.438833 16.2921 0.162575 16.7656 0.468021 16.9426V16.9432Z" fill="#211715"/>
  <path d="M23.9914 32.2224C22.7635 31.5183 21.5363 30.8129 20.31 30.106C18.8138 29.2446 17.3181 28.3824 15.8228 27.5194C14.2805 26.6298 12.7384 25.7395 11.1967 24.8485C9.80484 24.0446 8.41313 23.2402 7.02161 22.4353C6.00154 21.8454 4.98151 21.2552 3.96153 20.6649L3.68951 20.5073C3.38366 20.3303 3.1074 20.8037 3.41285 20.9806C4.3729 21.5367 5.33318 22.0924 6.29369 22.6478C7.65123 23.4328 9.00891 24.2176 10.3667 25.0021C11.9006 25.8883 13.4346 26.774 14.9688 27.6595C16.4822 28.5329 17.9959 29.4057 19.5098 30.2779C20.7797 31.0096 22.0505 31.7405 23.3224 32.4704L23.7147 32.6954C24.0212 32.8712 24.2976 32.3978 23.9914 32.2221V32.2224Z" fill="#211715"/>
  <path d="M22.487 33.5763C21.2976 32.8942 20.11 32.209 18.9241 31.5208C18.6183 31.3436 18.342 31.8172 18.6475 31.9941C19.8339 32.6812 21.0215 33.3663 22.2103 34.0496C22.5169 34.2254 22.7933 33.7519 22.487 33.5763Z" fill="#211715"/>
  <path d="M34.177 31.9427C33.5442 32.3061 31.492 33.4918 30.5586 34.0292C29.6578 33.5119 28.0603 32.5911 26.8674 31.9028C27.9947 31.2544 29.2345 30.5404 30.4887 29.8163C31.7129 30.5233 33.3205 31.451 34.177 31.9427Z" fill="#EA6D67"/>
  <path d="M26.8675 32.1769H26.8689L26.7306 32.1395C27.8768 32.8022 29.0239 33.4634 30.1719 34.123C30.2773 34.2019 30.3959 34.2613 30.5222 34.2983C30.6592 34.3168 30.7864 34.2143 30.8998 34.1489C31.1159 34.0245 31.332 33.8999 31.548 33.7752C32.0391 33.492 32.5303 33.2088 33.0214 32.9256C33.4526 32.677 33.8839 32.4284 34.3154 32.1799C34.3561 32.1553 34.3898 32.1205 34.4131 32.0791C34.4365 32.0376 34.4487 31.9908 34.4487 31.9433C34.4487 31.8957 34.4365 31.8489 34.4131 31.8074C34.3898 31.766 34.3561 31.7312 34.3154 31.7066C33.0847 31.0001 31.8553 30.2913 30.6272 29.5803C30.321 29.4036 30.0448 29.8771 30.3505 30.0536C31.5794 30.7633 32.8088 31.4721 34.0387 32.1799V31.706C32.8315 32.3995 31.6256 33.095 30.4211 33.7925H30.6976C30.0946 33.4459 29.4917 33.0988 28.8888 32.7511C28.5507 32.5563 28.2127 32.3615 27.8747 32.1666L27.3715 31.8761C27.2308 31.7948 27.034 31.6282 26.8677 31.6282C26.5149 31.6282 26.5144 32.1763 26.8677 32.1763L26.8675 32.1769Z" fill="#211715"/>
  <path d="M39.3004 24.4108C37.6141 25.3873 35.9272 26.3625 34.2396 27.3362C31.9703 28.6465 29.7001 29.9556 27.4291 31.2634C26.2546 31.9395 25.0797 32.6148 23.9045 33.2895C23.5983 33.4646 23.8742 33.9385 24.1811 33.7627C26.3515 32.5202 28.5192 31.2727 30.6842 30.0201C32.8293 28.7835 34.9738 27.5456 37.1176 26.3066C37.9374 25.8325 38.7572 25.3583 39.5769 24.8839C39.8821 24.7072 39.6064 24.2334 39.3002 24.4107L39.3004 24.4108Z" fill="#211715"/>
  <path d="M24.102 30.3878C26.4835 29.0229 28.8627 27.6539 31.2395 26.2806C33.8036 24.802 36.367 23.322 38.9296 21.8408C39.9001 21.2799 40.8704 20.7188 41.8406 20.1574C42.1458 19.9807 41.8701 19.5068 41.564 19.6841C39.5392 20.8561 37.5138 22.0268 35.4876 23.196C32.8255 24.7333 30.1625 26.2692 27.4986 27.8035C26.2744 28.5081 25.05 29.2118 23.8252 29.9145C23.5192 30.0899 23.795 30.5637 24.102 30.3878Z" fill="#211715"/>
  <path d="M35.9347 16.0554C35.9329 14.8328 35.9268 12.3305 35.9268 11.4412C35.9268 11.4412 35.9268 11.4287 35.9274 11.4047C30.4135 8.23229 22.1103 3.43339 18.3394 1.25073C15.1465 3.09821 8.71967 6.81167 5.00183 8.94746C5.00183 9.98453 5.00951 13.0572 5.00882 13.9689C8.40025 15.9326 17.2808 21.0658 22.7409 24.2053C26.6167 21.9772 32.9537 18.3152 35.9357 16.5891V16.5421C35.9351 16.423 35.935 16.2565 35.9347 16.0554Z" fill="white"/>
  <path d="M18.1 1.38912C14.8345 3.27839 8.62909 6.86331 5.00183 8.94745C5.00183 9.98451 5.00951 13.0572 5.00882 13.9689C6.48371 14.8229 8.99648 16.2764 11.8152 17.9046C11.8132 16.6532 11.8078 13.8886 11.8073 12.8367C17.5398 9.52532 22.3694 6.73272 25.0933 5.15575C22.3947 3.59672 19.9524 2.18446 18.3394 1.25031L18.1 1.38912Z" fill="#8AC46E"/>
  <path d="M36.2087 16.0554C36.2064 14.5069 36.1676 12.9533 36.2014 11.4048C36.2014 11.3569 36.1889 11.3099 36.1651 11.2683C36.1412 11.2268 36.107 11.1923 36.0656 11.1681C33.6316 9.76765 31.1985 8.36534 28.7666 6.96121C26.3542 5.56868 23.9425 4.17551 21.5312 2.7817C20.5135 2.19237 19.4956 1.60317 18.4776 1.01412C18.4355 0.989872 18.3878 0.977112 18.3392 0.977112C18.2907 0.977112 18.243 0.989872 18.2009 1.01412C16.5781 1.95325 14.9548 2.89165 13.3312 3.82932C11.437 4.9233 9.54239 6.01646 7.64731 7.10879C6.7196 7.64322 5.79166 8.17724 4.86349 8.71085C4.82227 8.73512 4.78807 8.76971 4.76426 8.8112C4.74045 8.85269 4.72785 8.89966 4.72769 8.9475C4.72769 10.143 4.72952 11.3385 4.73317 12.5342C4.73372 12.8236 4.73413 13.113 4.7344 13.4024C4.7344 13.5973 4.69233 13.8522 4.74454 14.0418C4.80032 14.2444 5.18168 14.3858 5.35434 14.4857L5.98469 14.8509C8.29443 16.1873 10.6048 17.5228 12.9157 18.8572C15.5663 20.3881 18.2176 21.9175 20.8698 23.4453L21.7772 23.9677L22.195 24.208C22.3351 24.3014 22.4819 24.3841 22.6342 24.4557C22.8151 24.5255 22.9842 24.3808 23.1351 24.2941L23.591 24.0318C23.8983 23.855 24.2056 23.6782 24.5128 23.5012C25.851 22.7305 27.1889 21.959 28.5265 21.1869C30.9761 19.773 33.425 18.3578 35.8731 16.9413C36.0227 16.8547 36.1946 16.7872 36.2085 16.589C36.221 16.4131 36.2085 16.2318 36.2085 16.0554C36.2085 15.7027 35.6604 15.7021 35.6604 16.0554C35.6604 16.2333 35.6604 16.4111 35.6604 16.589L35.7962 16.3524C34.2412 17.2525 32.6857 18.1519 31.1297 19.0505C29.2369 20.1441 27.3436 21.2368 25.4497 22.3288C24.5004 22.8758 23.551 23.4224 22.6014 23.9685H22.8781C20.3957 22.5412 17.9148 21.1115 15.4353 19.6794C12.9853 18.2652 10.5358 16.8501 8.08705 15.434C7.10672 14.8668 6.12675 14.2996 5.14715 13.7323L5.28281 13.9689C5.28363 12.6108 5.2787 11.2525 5.27664 9.8944C5.27664 9.57868 5.27637 9.26304 5.27582 8.9475L5.14016 9.18402C6.88952 8.17911 8.63774 7.17215 10.3848 6.16313C12.245 5.08989 14.1047 4.01587 15.9638 2.94107C16.8019 2.45689 17.6399 1.97234 18.4776 1.48743H18.2009C20.2186 2.6554 22.2368 3.82238 24.2556 4.98835C26.7835 6.44903 29.312 7.90861 31.841 9.3671C33.1566 10.1253 34.4725 10.8836 35.789 11.6418L35.6533 11.4052C35.6193 12.9537 35.6582 14.5068 35.6606 16.0558C35.6611 16.408 36.2092 16.4087 36.2087 16.0554Z" fill="#211715"/>
  <path d="M22.428 19.0779C22.428 20.2376 22.4362 21.3975 22.4363 22.5572C22.4363 22.9099 22.9845 22.9105 22.9845 22.5572C22.9845 21.3975 22.9762 20.2376 22.9761 19.0779C22.9761 18.7252 22.428 18.7246 22.428 19.0779Z" fill="#211715"/>
  <path d="M22.8931 18.9085C20.8132 17.7159 18.7355 16.5196 16.66 15.3198C14.4208 14.0277 12.1822 12.7346 9.94417 11.4402C9.09612 10.9502 8.24857 10.4599 7.40152 9.96919C7.0958 9.79201 6.81941 10.2656 7.12485 10.4425C8.89304 11.4665 10.6618 12.4894 12.4312 13.5111C14.7561 14.854 17.0817 16.196 19.4079 17.537C20.4768 18.1527 21.5463 18.7677 22.6164 19.3819C22.923 19.5575 23.1994 19.0842 22.8931 18.9085Z" fill="#211715"/>
  <path d="M22.8221 19.3154C24.3252 18.4539 25.8269 17.5898 27.3271 16.7231C28.9397 15.793 30.5519 14.8623 32.1637 13.9308C32.7809 13.5745 33.3979 13.2176 34.0149 12.8602C34.3202 12.6835 34.0445 12.2097 33.7383 12.3868C32.4604 13.1268 31.1819 13.8657 29.9031 14.6035C28.2293 15.5701 26.555 16.5357 24.8801 17.5004C24.1021 17.948 23.3239 18.3952 22.5455 18.8421C22.2395 19.0175 22.5153 19.4912 22.8221 19.3154Z" fill="#211715"/>
  <path d="M11.9609 13.0643C13.967 11.9058 15.9727 10.7469 17.978 9.58767C19.6066 8.64671 21.2351 7.70502 22.8635 6.76259C23.56 6.35972 24.2565 5.9567 24.9529 5.55355C25.2581 5.37692 24.9825 4.90306 24.6762 5.08038C23.3295 5.86 21.9824 6.63931 20.6351 7.4183C18.823 8.46614 17.0107 9.51371 15.1983 10.561C14.0267 11.2378 12.8555 11.9145 11.6848 12.5913C11.3794 12.7677 11.6551 13.2415 11.9613 13.0646L11.9609 13.0643Z" fill="#211715"/>
  <path d="M11.5325 12.8344C11.5343 14.3888 11.5408 15.9431 11.541 17.4975C11.541 17.8502 12.0891 17.8508 12.0891 17.4975C12.0891 15.9431 12.0824 14.3888 12.0806 12.8344C12.0806 12.4817 11.5325 12.4811 11.5325 12.8344Z" fill="#211715"/>
  <path d="M20.2049 12.9377C20.19 13.2313 20.1154 13.5187 19.9857 13.7825C19.7135 14.3169 19.1884 14.6827 18.6355 14.9156C18.0825 15.1486 18.0033 15.0882 17.4312 15.2686C16.9852 15.4094 16.5182 15.612 16.327 16.0634C16.2469 16.2947 16.1993 16.536 16.1857 16.7804C16.1446 17.7049 16.152 18.6668 16.1405 19.6183C16.1412 19.6847 16.1208 19.7496 16.0821 19.8036C16.0434 19.8576 15.9885 19.8978 15.9254 19.9184C15.2732 20.1085 14.5858 20.1452 13.9171 20.0255C13.848 20.0026 13.7864 19.9612 13.739 19.9058C13.6667 19.8376 13.6145 19.7508 13.5883 19.6549C13.5367 19.223 13.5119 18.807 13.4973 18.3905C13.0186 18.4967 12.4716 18.6804 11.9625 18.5562C11.6086 18.4697 11.2767 18.1999 11.2225 17.8397L11.1776 17.542C11.0985 16.0869 11.0194 16.2701 10.9405 14.8151C10.9139 14.3254 10.8926 13.8092 11.1162 13.3728C11.3089 13.0465 11.5749 12.7696 11.8932 12.5639C12.5068 12.1152 13.1723 11.7422 13.8752 11.4528C13.8752 11.4528 19.2891 12.7509 20.2049 12.9377Z" fill="#A0A0A0"/>
  <path d="M19.0976 13.4254C19.4127 13.2489 19.8188 13.0502 20.2107 12.8153C20.861 12.4263 21.4793 11.9344 21.6072 11.2743C21.651 10.9887 21.6496 10.6979 21.6031 10.4127C21.478 9.40254 21.239 8.11292 20.6094 7.28196C20.2257 6.77329 19.6201 6.11717 19.0294 5.81447C19.0294 5.81447 18.0049 5.31841 17.0094 5.25359C15.4114 5.14931 14.5936 5.83064 14.5936 5.83064C13.6675 6.53232 13.0253 7.54423 12.7847 8.68093L12.506 10.2859L12.4053 10.8647L19.0976 13.4254Z" fill="white"/>
  <path d="M12.6914 21.334C12.6622 21.1905 12.6646 21.0425 12.6984 20.9C12.7322 20.7576 12.7967 20.6242 12.8872 20.5092C13.0945 20.2627 13.3477 20.0589 13.6327 19.9089C13.9205 20.1343 15.0896 20.1777 15.9263 19.9184C15.9548 19.9097 15.9817 19.8967 16.0062 19.8799C16.0165 19.9776 16.0231 20.0379 16.0231 20.0379C16.1101 20.8327 15.6287 21.1523 15.3231 21.3341C14.9592 21.5503 14.5673 21.7154 14.1583 21.8246C13.9126 21.9004 13.654 21.9257 13.3982 21.899C13.2706 21.8839 13.1478 21.8412 13.0384 21.7737C12.929 21.7063 12.8356 21.6158 12.7647 21.5086C12.7323 21.4541 12.7076 21.3953 12.6914 21.334Z" fill="white"/>
  <path d="M10.2435 19.6118C10.2806 19.507 10.3334 19.4085 10.4002 19.3196C10.6254 19.0582 10.8997 18.8435 11.2076 18.6875C11.3643 18.5794 11.5421 18.5056 11.7294 18.4709C11.8039 18.5082 11.8825 18.537 11.9634 18.5569C12.4725 18.6811 13.0194 18.4976 13.4982 18.3912C13.5085 18.6915 13.5244 18.9913 13.5516 19.2972L13.3366 19.3327C13.3527 19.6752 13.0489 19.9424 12.754 20.1177C12.4022 20.3268 12.0232 20.4863 11.6278 20.5917C11.3903 20.6652 11.1402 20.6894 10.8929 20.663C10.7695 20.6488 10.6506 20.6077 10.5448 20.5425C10.439 20.4773 10.3488 20.3897 10.2805 20.2859C10.2256 20.183 10.1938 20.0694 10.1874 19.9529C10.181 19.8365 10.2001 19.72 10.2435 19.6118Z" fill="white"/>
  <path d="M14.6948 3.15415C14.6568 3.95581 14.9256 4.74185 15.4465 5.35243C15.9186 5.89391 16.5856 6.22691 17.3022 6.27891C18.0188 6.33091 18.7269 6.0977 19.2723 5.63006C19.649 5.6498 20.0203 5.53352 20.3185 5.30241C20.4522 5.19837 20.5572 5.06201 20.6236 4.90618C20.69 4.75036 20.7157 4.58019 20.6982 4.4117C20.677 4.2948 20.6273 4.18493 20.5535 4.09174C20.4798 3.99855 20.3843 3.9249 20.2755 3.87727C20.4812 3.34239 20.5045 2.75454 20.3417 2.20507C20.179 1.65559 19.8393 1.17526 19.3755 0.8387C18.1563 -0.0273484 16.4328 0.0918704 15.431 1.2313C14.9721 1.76872 14.7122 2.44769 14.6948 3.15415Z" fill="white"/>
  <path d="M15.0918 1.71088C14.9136 2.02991 14.793 2.3778 14.7355 2.73863C15.46 2.80283 16.1899 2.71489 16.8784 2.48046C16.8977 2.47392 16.9181 2.47144 16.9384 2.47319C16.9588 2.47493 16.9785 2.48086 16.9964 2.4906C17.0827 2.53924 16.9784 2.72794 16.9296 2.81427C17.2366 2.90074 17.9882 2.75946 18.3204 2.57693C18.505 3.02585 18.6935 3.25976 19.0556 3.42927L20.0274 3.81639C20.1133 3.82111 20.1975 3.84179 20.2757 3.87737C20.4812 3.34235 20.5042 2.75448 20.3414 2.205C20.1785 1.65552 19.8388 1.17517 19.375 0.838527C18.1562 -0.0273848 16.4328 0.0918339 15.4309 1.23126C15.3014 1.37886 15.1878 1.5396 15.0918 1.71088Z" fill="white"/>
  <path d="M15.7485 20.0384C15.7763 20.2102 15.7579 20.3863 15.6953 20.5487C15.6327 20.7111 15.5281 20.8539 15.3922 20.9627C14.9982 21.2433 14.5542 21.4463 14.0841 21.5607C13.704 21.6614 12.9485 21.7274 12.9411 21.1446C12.9346 20.6239 13.472 20.3224 13.8601 20.0928C14.1636 19.9134 13.8875 19.4394 13.5834 19.6195C13.1248 19.8905 12.6642 20.195 12.47 20.7157C12.3722 20.9544 12.3658 21.2208 12.4522 21.4639C12.5385 21.707 12.7115 21.9097 12.938 22.0332C13.4646 22.309 14.0855 22.1612 14.6146 21.969C15.047 21.8262 15.4512 21.609 15.809 21.3272C15.9895 21.1688 16.1284 20.9685 16.2134 20.7439C16.2984 20.5193 16.327 20.2773 16.2965 20.0391C16.2946 19.967 16.2652 19.8983 16.2142 19.8473C16.1632 19.7963 16.0945 19.7669 16.0225 19.765C15.9499 19.7655 15.8805 19.7946 15.8293 19.8459C15.778 19.8971 15.7489 19.9665 15.7484 20.0391L15.7485 20.0384Z" fill="#211715"/>
  <path d="M11.6201 18.2114C11.3778 18.277 11.1485 18.3836 10.9422 18.5266C10.7367 18.6447 10.5447 18.7847 10.3694 18.9442C10.032 19.2658 9.81015 19.7677 9.95952 20.2323C10.1172 20.7237 10.6329 20.9622 11.1207 20.9494C11.6468 20.9357 12.186 20.7257 12.6491 20.4888C13.1047 20.2558 13.615 19.902 13.6112 19.3324C13.6088 18.9798 13.0606 18.979 13.063 19.3324C13.0658 19.735 12.4716 19.9777 12.1715 20.1121C11.9549 20.2082 11.7302 20.285 11.5 20.3416C11.2683 20.4174 11.0192 20.4217 10.785 20.3541C10.389 20.2055 10.3988 19.7747 10.6244 19.4745C10.7672 19.3034 10.9401 19.16 11.1346 19.0512C11.325 18.911 11.5387 18.8056 11.7659 18.74C12.1112 18.6695 11.965 18.1411 11.6201 18.2114Z" fill="#211715"/>
  <path d="M13.8024 11.188C13.0234 11.5047 12.2892 11.9219 11.6184 12.4289C11.2825 12.6608 11.0115 12.9747 10.8311 13.3408C10.6831 13.7253 10.6229 14.138 10.6546 14.5488C10.6745 15.1401 10.7313 15.7273 10.8023 16.3142C10.8665 16.8446 10.8633 17.385 10.9584 17.9105C11.0006 18.0979 11.0882 18.2721 11.2133 18.4178C11.3385 18.5636 11.4975 18.6764 11.6763 18.7464C12.1367 18.9442 12.6439 18.8706 13.1174 18.7636C13.4613 18.6859 13.3158 18.1573 12.9717 18.235C12.4601 18.3507 11.5968 18.4406 11.4831 17.7397C11.408 17.2772 11.4087 16.8002 11.3522 16.33C11.293 15.8367 11.2444 15.3454 11.217 14.8494C11.1782 14.5001 11.1901 14.1471 11.2523 13.8012C11.3436 13.4685 11.5422 13.1754 11.8173 12.9672C12.4603 12.4452 13.1787 12.0235 13.9479 11.7165C14.0168 11.6953 14.075 11.6486 14.1106 11.586C14.1463 11.5233 14.1567 11.4495 14.1398 11.3794C14.1202 11.3095 14.0738 11.2501 14.0106 11.2142C13.9475 11.1783 13.8728 11.1687 13.8027 11.1876L13.8024 11.188Z" fill="#211715"/>
  <path d="M13.7455 13.8308C13.2759 14.1572 13.158 14.669 13.1495 15.207C13.1409 15.7528 13.1699 16.2982 13.1869 16.8434C13.2093 17.5588 13.2061 18.275 13.2541 18.9894C13.2763 19.3202 13.2519 19.7246 13.4621 19.9988C13.6635 20.2619 13.9107 20.3171 14.2233 20.35C14.5233 20.3793 14.8256 20.3782 15.1254 20.3468C15.4373 20.3282 15.7453 20.2677 16.0411 20.1669C16.3987 20.0275 16.4143 19.6847 16.4175 19.3531C16.4212 18.9764 16.4226 18.5994 16.4263 18.2228C16.4298 17.8502 16.4354 17.4776 16.4478 17.1052C16.4397 16.8001 16.4799 16.4957 16.5668 16.2032C16.7498 15.7079 17.3992 15.5446 17.8563 15.4343C18.4491 15.2913 19.0197 15.1055 19.5133 14.7318C19.8118 14.5086 20.0547 14.2196 20.2231 13.8872C20.3915 13.5548 20.4809 13.188 20.4843 12.8154C20.498 12.4626 19.9499 12.4632 19.9362 12.8154C19.935 13.0958 19.8701 13.3723 19.7465 13.6241C19.6228 13.8758 19.4436 14.0962 19.2224 14.2686C18.8302 14.5618 18.3782 14.7647 17.8985 14.863C17.41 14.9716 16.8911 15.1097 16.4912 15.4249C16.0471 15.7743 15.9375 16.3083 15.9091 16.8465C15.873 17.5257 15.8773 18.2079 15.8726 18.8883C15.8715 19.0546 15.8702 19.221 15.8687 19.3873C15.8781 19.4648 15.8772 19.5431 15.8661 19.6203C15.8506 19.6643 15.857 19.6477 15.8281 19.6637C15.7024 19.7134 15.5702 19.7447 15.4356 19.7566C15.2965 19.7817 15.1562 19.7994 15.0152 19.8095C14.7515 19.8314 14.4863 19.8293 14.2229 19.8032C14.1366 19.8025 14.0512 19.7848 13.9717 19.7511C13.8441 19.6752 13.8476 19.5282 13.8347 19.4005C13.7719 18.7553 13.7619 18.1069 13.749 17.4591C13.7367 16.8439 13.7053 16.229 13.6971 15.6136C13.6941 15.3819 13.6903 15.1483 13.7081 14.917C13.7096 14.8979 13.7111 14.8787 13.713 14.8596C13.7186 14.8048 13.7094 14.8763 13.7145 14.8506C13.7279 14.7775 13.7478 14.7058 13.7738 14.6363C13.8217 14.5041 13.9075 14.3891 14.0205 14.3055C14.3083 14.1055 14.0342 13.6302 13.744 13.8321L13.7455 13.8308Z" fill="#211715"/>
  <path d="M14.4549 5.59402C13.4703 6.33466 12.7839 7.40382 12.5204 8.60737C12.4471 8.95146 12.9753 9.0985 13.0489 8.75317C13.2724 7.68626 13.869 6.73397 14.7314 6.06733C14.7925 6.02907 14.8366 5.96897 14.8549 5.89929C14.8732 5.8296 14.8642 5.75557 14.8298 5.69227C14.7928 5.62988 14.7327 5.58459 14.6625 5.5662C14.5923 5.54781 14.5177 5.5578 14.4549 5.59402Z" fill="#211715"/>
  <path d="M12.7737 11.4516C12.4689 11.2616 12.3422 10.9405 12.2924 10.5997C12.2367 10.2175 12.302 9.73119 12.8578 9.59224C13.0576 9.55253 13.265 9.59124 13.4369 9.70036C13.6179 9.80571 13.7645 9.96116 13.8591 10.148C13.9537 10.3348 13.9923 10.545 13.9701 10.7532C13.9326 11.2054 13.5055 11.6213 13.0557 11.5557C12.9555 11.541 12.8594 11.5056 12.7737 11.4516Z" fill="white"/>
  <path d="M12.912 11.2149C12.8492 11.1747 12.7936 11.1242 12.7476 11.0654C12.7721 11.096 12.7365 11.0488 12.7314 11.0412C12.7184 11.0215 12.7061 11.0015 12.6944 10.981C12.6851 10.9647 12.6762 10.948 12.667 10.9311C12.667 10.9311 12.6331 10.854 12.6485 10.8926C12.6176 10.8115 12.5939 10.7279 12.5775 10.6427C12.5726 10.6187 12.568 10.5946 12.5638 10.5705C12.5607 10.5518 12.5534 10.4855 12.5612 10.559C12.5576 10.5244 12.5541 10.4898 12.5523 10.4549C12.5497 10.391 12.5511 10.3269 12.5565 10.2631C12.5604 10.2117 12.5565 10.2631 12.5552 10.2723C12.5587 10.2547 12.5615 10.2372 12.5653 10.2197C12.5739 10.1812 12.5863 10.1447 12.5985 10.1072C12.5785 10.1688 12.6103 10.0844 12.6205 10.066C12.6308 10.0477 12.6864 9.97862 12.6459 10.0236C12.6683 9.99846 12.692 9.97449 12.7169 9.95176C12.7487 9.92299 12.6634 9.98246 12.7267 9.9445C12.748 9.93175 12.7678 9.91805 12.7903 9.90627C12.8054 9.89818 12.821 9.89023 12.8368 9.88338C12.7974 9.90051 12.8406 9.88338 12.8472 9.88092C12.8879 9.86752 12.9294 9.8565 12.9715 9.84789C12.9102 9.8583 12.9968 9.84967 13.0194 9.85008C13.042 9.85049 13.0647 9.85173 13.0871 9.85419C13.1065 9.85598 13.1056 9.85598 13.0848 9.85419C13.0993 9.8568 13.1136 9.85981 13.1278 9.86338C13.2078 9.88226 13.2827 9.91852 13.3471 9.96958C13.3502 9.97177 13.3882 10.0004 13.3608 9.97835C13.3756 9.98986 13.3898 10.0021 13.404 10.0142C13.4417 10.047 13.4774 10.082 13.5108 10.1191C13.5988 10.217 13.6587 10.3368 13.6843 10.4659C13.6834 10.4614 13.6997 10.5465 13.6936 10.5083C13.6876 10.47 13.6983 10.558 13.6979 10.5529C13.7009 10.5951 13.7018 10.6375 13.7005 10.6798C13.6998 10.7041 13.6986 10.7285 13.6965 10.7527C13.6975 10.7407 13.7065 10.7061 13.6951 10.7624C13.6857 10.8079 13.6735 10.8528 13.6584 10.8967C13.631 10.979 13.6702 10.876 13.6477 10.9213C13.6353 10.9463 13.6221 10.971 13.6077 10.995C13.5911 11.0285 13.5692 11.0591 13.5428 11.0856C13.5119 11.12 13.4785 11.1521 13.4427 11.1815C13.4725 11.1572 13.4373 11.1853 13.4323 11.1885C13.4092 11.2033 13.3864 11.2182 13.3624 11.2315C13.3018 11.2644 13.2346 11.2836 13.1657 11.2876C13.0756 11.2904 12.987 11.2648 12.9124 11.2142C12.8497 11.1776 12.7749 11.1673 12.7046 11.1857C12.6342 11.2042 12.5741 11.2498 12.5374 11.3126C12.5007 11.3753 12.4905 11.4501 12.5089 11.5204C12.5274 11.5908 12.573 11.6509 12.6357 11.6876C13.1428 11.989 13.732 11.7843 14.0507 11.3185C14.1825 11.1092 14.2519 10.8667 14.2509 10.6194C14.25 10.372 14.1787 10.1301 14.0454 9.92175C13.7739 9.50435 13.2643 9.19397 12.7573 9.33484C12.5441 9.39385 12.3557 9.52023 12.2202 9.69511C12.0848 9.86999 12.0095 10.084 12.0057 10.3052C11.9718 10.8307 12.1857 11.3961 12.636 11.6876C12.6988 11.7242 12.7736 11.7345 12.8439 11.7161C12.9142 11.6976 12.9743 11.652 13.011 11.5892C13.0477 11.5265 13.058 11.4517 13.0395 11.3814C13.0211 11.3111 12.9755 11.2509 12.9127 11.2142L12.912 11.2149Z" fill="#211715"/>
  <path d="M14.5363 7.8353V10.8902C14.5363 11.2429 15.0844 11.2435 15.0844 10.8902V7.8353C15.0844 7.48258 14.5363 7.48203 14.5363 7.8353Z" fill="#211715"/>
  <path d="M14.7153 11.4098C13.8724 11.5527 13.0121 11.8816 11.769 12.0878C12.5352 12.4578 13.9761 13.1664 15.354 13.8556C16.5512 13.368 16.892 13.283 17.6413 12.9958C16.3877 12.349 14.7177 11.4094 14.7153 11.4098Z" fill="white"/>
  <path d="M14.6424 11.1456C13.6487 11.3178 12.6925 11.6557 11.6962 11.8235C11.4682 11.8621 11.4261 12.2257 11.6309 12.3244C12.4409 12.7152 13.2479 13.1136 14.0528 13.5133C14.2947 13.6333 14.5364 13.7534 14.7778 13.8738C14.9044 13.937 15.0304 14.0017 15.1575 14.0635C15.2225 14.0987 15.2953 14.1167 15.3692 14.1158C15.443 14.1149 15.5154 14.0952 15.5795 14.0584C15.9574 13.906 16.338 13.7604 16.7212 13.6216C17.0526 13.5022 17.3852 13.3863 17.7142 13.2605C17.9168 13.1831 18.0071 12.8768 17.7797 12.7596C17.1304 12.424 16.4879 12.0756 15.8475 11.7235C15.5175 11.5422 15.193 11.3368 14.8537 11.1732C14.5373 11.0208 14.259 11.4933 14.5771 11.6465C14.9164 11.8101 15.2409 12.0155 15.5708 12.1968C16.2113 12.5489 16.8539 12.8972 17.503 13.2329L17.5685 12.7319C16.8073 13.023 16.0367 13.2847 15.2813 13.5917L15.4925 13.6191C14.3003 13.023 13.1081 12.4298 11.9075 11.8514L11.842 12.3522C12.8383 12.1844 13.7943 11.8464 14.7882 11.6743C14.8581 11.6546 14.9173 11.6081 14.9532 11.5451C14.9891 11.482 14.9988 11.4073 14.9801 11.3372C14.9594 11.2679 14.9127 11.2092 14.8498 11.1735C14.7869 11.1378 14.7126 11.1278 14.6424 11.1456Z" fill="#211715"/>
  <path d="M16.9221 12.6791C17.003 12.0241 17.6884 11.4779 18.5686 11.8569C18.7015 12.2656 18.9324 12.8833 19.0743 13.3997C18.8809 13.5563 18.7135 13.6922 18.7135 13.6922C18.4303 14.034 17.805 13.9725 17.4649 13.7655C17.2804 13.6549 17.1313 13.4939 17.0352 13.3014C16.939 13.109 16.8998 12.8931 16.9221 12.6791Z" fill="white"/>
  <path d="M18.4737 11.5303C18.1065 11.4132 17.7081 11.443 17.3624 11.6135C17.0662 11.771 16.8386 12.0323 16.7233 12.3474C16.452 13.06 16.881 13.8625 17.5792 14.118C18.0063 14.2745 18.5905 14.2516 18.9073 13.8851C18.9571 13.8328 18.9849 13.7634 18.9849 13.6912C18.9849 13.619 18.9571 13.5496 18.9073 13.4974C18.8556 13.4466 18.786 13.4182 18.7135 13.4182C18.6411 13.4182 18.5715 13.4466 18.5198 13.4974C18.5061 13.5126 18.4924 13.5266 18.4787 13.5415C18.4696 13.5517 18.4281 13.5847 18.4707 13.5523C18.4418 13.5731 18.4113 13.5917 18.3796 13.608C18.3659 13.6151 18.3181 13.6306 18.3679 13.6139C18.3525 13.6191 18.3374 13.6246 18.3218 13.6292C18.2822 13.6411 18.242 13.6502 18.2012 13.6566C18.256 13.648 18.2012 13.6566 18.1865 13.6566C18.1653 13.6574 18.1442 13.6592 18.1229 13.6596C18.0844 13.6596 18.0462 13.6576 18.0077 13.6561C17.994 13.6561 17.9379 13.6491 17.9914 13.6561C17.9745 13.6539 17.9577 13.6509 17.941 13.6479C17.8955 13.6395 17.8505 13.6288 17.8061 13.6159C17.7708 13.6057 17.7364 13.5935 17.702 13.5807C17.7547 13.6002 17.6658 13.5632 17.651 13.5554C17.6196 13.5381 17.5893 13.519 17.5601 13.4982C17.4934 13.4519 17.5822 13.5174 17.5456 13.4871C17.5267 13.4714 17.5081 13.4556 17.49 13.439C17.4637 13.415 17.4382 13.3902 17.4139 13.3642C17.4035 13.3531 17.3932 13.3416 17.3831 13.3301C17.3831 13.3301 17.3361 13.2725 17.3617 13.3054C17.3873 13.3383 17.344 13.2803 17.3438 13.2798C17.3355 13.2679 17.3275 13.2558 17.3198 13.2436C17.2988 13.2109 17.2796 13.177 17.2624 13.1422C17.2546 13.1267 17.2474 13.111 17.2403 13.0953C17.244 13.1036 17.26 13.1502 17.2447 13.104C17.2343 13.0719 17.2228 13.0407 17.214 13.008C17.2071 12.9826 17.2017 12.9568 17.1963 12.9309C17.1954 12.926 17.186 12.8624 17.1921 12.9092C17.198 12.9546 17.1907 12.8869 17.1901 12.878C17.1875 12.8172 17.1888 12.7564 17.1938 12.6958C17.1903 12.7573 17.1923 12.7051 17.1984 12.6745C17.2056 12.6373 17.2147 12.6005 17.2258 12.5642C17.2332 12.5401 17.2428 12.5166 17.2507 12.4927C17.2699 12.4344 17.2282 12.5294 17.2491 12.4972C17.2573 12.4843 17.2628 12.4683 17.2698 12.4547C17.2827 12.4293 17.2967 12.4046 17.3117 12.3806C17.3214 12.3647 17.3868 12.2757 17.3391 12.3349C17.3747 12.2901 17.4136 12.2481 17.4554 12.2091C17.4657 12.1996 17.5316 12.1456 17.5012 12.1689C17.4654 12.1963 17.517 12.1583 17.5203 12.1561C17.5366 12.1454 17.5526 12.1346 17.5693 12.1245C17.5967 12.1075 17.6261 12.0918 17.6554 12.0775C17.6588 12.0758 17.7184 12.0501 17.677 12.0669C17.638 12.0831 17.702 12.0584 17.7099 12.0557C17.7453 12.0435 17.7814 12.0331 17.8179 12.0247C17.842 12.0192 17.9373 12.007 17.8693 12.0132C17.9504 12.0067 18.0319 12.0059 18.1131 12.0109C18.1249 12.0109 18.1668 12.0172 18.1099 12.0092C18.1338 12.0127 18.1575 12.0168 18.181 12.0214C18.2302 12.0313 18.2786 12.044 18.3267 12.0584C18.3614 12.068 18.3977 12.0706 18.4334 12.0662C18.4691 12.0617 18.5036 12.0503 18.5349 12.0325C18.5662 12.0147 18.5937 11.991 18.6158 11.9626C18.6379 11.9342 18.6542 11.9017 18.6638 11.867C18.6734 11.8323 18.676 11.796 18.6716 11.7603C18.6671 11.7246 18.6557 11.6901 18.6379 11.6588C18.6201 11.6275 18.5964 11.6 18.568 11.5779C18.5396 11.5557 18.5071 11.5394 18.4724 11.5299L18.4737 11.5303Z" fill="#211715"/>
  <path d="M19.313 9.60799C19.3025 9.53482 19.3088 9.5762 19.313 9.61882C19.316 9.65472 19.3188 9.69063 19.3214 9.72653C19.3287 9.82903 19.3342 9.93208 19.339 10.0346C19.3493 10.2596 19.3568 10.4853 19.3515 10.7104C19.3505 10.7546 19.349 10.7985 19.3461 10.8425C19.3445 10.8682 19.3428 10.9659 19.3431 10.8924C19.3431 10.965 19.3183 10.8924 19.3532 10.8865C19.3147 10.8936 19.241 10.9724 19.2009 11.0049C18.9253 11.2273 18.6575 11.4592 18.3814 11.6809C18.3465 11.7147 18.3214 11.7574 18.309 11.8044C18.2966 11.8514 18.2973 11.9009 18.311 11.9476C18.4821 12.4668 18.6757 12.9787 18.8202 13.5064C18.8318 13.5466 18.8524 13.5837 18.8803 13.6148C18.9083 13.6459 18.9429 13.6703 18.9817 13.6861C19.0204 13.7019 19.0622 13.7088 19.104 13.7061C19.1457 13.7035 19.1864 13.6915 19.2228 13.6709C20.3592 13.0352 21.9473 12.3874 21.9136 10.8451C21.884 10.1668 21.7775 9.49404 21.5959 8.83979C21.4535 8.21607 21.1889 7.62674 20.8176 7.10577C20.3681 6.51653 19.8322 5.92852 19.1685 5.5784C18.8566 5.41396 18.5793 5.88686 18.8918 6.05171C19.4213 6.33099 19.8533 6.78087 20.2296 7.23924C20.5815 7.67722 20.8415 8.1817 20.9939 8.72249C21.1562 9.28635 21.2699 9.86309 21.3336 10.4464C21.3728 10.7728 21.4038 11.1244 21.2758 11.4362C21.1645 11.6778 21.001 11.8917 20.797 12.0625C20.2583 12.5509 19.5743 12.8461 18.9461 13.1976L19.3487 13.362C19.2043 12.8343 19.0107 12.3223 18.8395 11.8031L18.7689 12.0697C19.0642 11.8326 19.3497 11.5835 19.6459 11.3475C19.8515 11.1843 19.8878 11.0249 19.8978 10.7735C19.9183 10.336 19.8997 9.89767 19.8422 9.46356C19.8226 9.39363 19.7762 9.33426 19.7131 9.29834C19.6499 9.26242 19.5752 9.25285 19.5051 9.27172C19.4359 9.29253 19.3774 9.33914 19.3417 9.4019C19.306 9.46465 19.2958 9.53874 19.3132 9.60882L19.313 9.60799Z" fill="#211715"/>
  <path d="M20.5825 3.83491C20.7616 3.27423 20.7656 2.67232 20.5941 2.10929C20.4226 1.54626 20.0837 1.04881 19.6225 0.683149C19.1678 0.335514 18.631 0.111217 18.0641 0.0319899C17.4973 -0.0472368 16.9196 0.0212934 16.387 0.23094C15.2633 0.691919 14.5587 1.74104 14.4365 2.93433C14.371 3.52649 14.4634 4.12543 14.7044 4.67028C14.9454 5.21514 15.3263 5.68651 15.8084 6.03648C16.9302 6.8199 18.5522 6.68204 19.5444 5.75227C19.8024 5.51055 19.4142 5.12357 19.1568 5.36461C18.7892 5.69442 18.3321 5.90775 17.8432 5.97759C17.3543 6.04743 16.8556 5.97063 16.4104 5.75693C15.4879 5.29609 14.9728 4.30616 14.9672 3.29555C14.9618 2.32412 15.4241 1.37873 16.2804 0.887877C16.6927 0.660857 17.1563 0.543285 17.627 0.54638C18.0976 0.549474 18.5597 0.673132 18.969 0.905554C19.444 1.1723 19.8118 1.59551 20.0097 2.10306C20.2076 2.6106 20.2234 3.17108 20.0544 3.68897C19.9459 4.02538 20.4748 4.16954 20.5829 3.83463L20.5825 3.83491Z" fill="#211715"/>
  <path d="M20.0279 4.09092C20.0924 4.09558 19.9979 4.079 20.0553 4.09407C20.0797 4.10037 20.1043 4.10558 20.1284 4.11325C20.1421 4.11778 20.1983 4.1445 20.1568 4.12339C20.1794 4.13491 20.2019 4.14655 20.2234 4.15998C20.2333 4.16601 20.287 4.20493 20.2508 4.17602C20.2706 4.19199 20.2894 4.20906 20.3073 4.22713C20.3254 4.24494 20.3424 4.26384 20.3583 4.28372C20.3262 4.24261 20.3681 4.30195 20.3737 4.31113C20.387 4.3328 20.3989 4.35527 20.4094 4.37841C20.3876 4.32963 20.4142 4.39746 20.4173 4.40856C20.4246 4.43327 20.4303 4.45845 20.4342 4.48393C20.4264 4.42994 20.4333 4.50572 20.4342 4.51709C20.4342 4.5445 20.4329 4.57053 20.4314 4.59739C20.4281 4.65865 20.4407 4.57643 20.4257 4.6311C20.4135 4.67577 20.3896 4.76211 20.3817 4.7806C20.3441 4.86196 20.295 4.93751 20.2359 5.00493C20.1688 5.08037 20.0882 5.14257 19.9983 5.18828C19.9066 5.24285 19.8074 5.28371 19.7039 5.30955C19.6465 5.32576 19.5881 5.33871 19.5292 5.34833C19.5097 5.35135 19.5097 5.35135 19.5292 5.34833C19.5147 5.35011 19.5002 5.35148 19.4856 5.35272C19.4521 5.3556 19.4185 5.35697 19.3849 5.35779C19.3122 5.35779 19.2425 5.38666 19.1911 5.43806C19.1397 5.48946 19.1108 5.55917 19.1108 5.63185C19.1108 5.70454 19.1397 5.77425 19.1911 5.82565C19.2425 5.87704 19.3122 5.90592 19.3849 5.90592C20.0387 5.88989 20.6993 5.53593 20.9215 4.89462C20.9746 4.74852 20.9937 4.59223 20.9773 4.43764C20.9609 4.28306 20.9095 4.13424 20.8269 4.00253C20.7382 3.86956 20.62 3.75889 20.4815 3.67914C20.343 3.59939 20.1879 3.55273 20.0284 3.54279C19.9558 3.54318 19.8864 3.57218 19.8351 3.6235C19.7837 3.67481 19.7547 3.74429 19.7543 3.81685C19.7561 3.889 19.7855 3.95773 19.8365 4.00876C19.8875 4.05979 19.9563 4.08921 20.0284 4.09092H20.0279Z" fill="#211715"/>
  <path d="M16.4236 4.15116C16.4201 4.21526 16.4025 4.27779 16.3719 4.33424C16.3413 4.39069 16.2986 4.43964 16.2468 4.47757C16.1733 4.52473 16.0843 4.54153 15.9986 4.52444C15.9402 4.51405 15.885 4.49003 15.8375 4.45431C15.7901 4.4186 15.7517 4.3722 15.7255 4.31889C15.6876 4.23336 15.6778 4.13802 15.6975 4.04658C15.7172 3.95513 15.7654 3.87229 15.8352 3.80995C15.9032 3.7534 15.99 3.72468 16.0783 3.72953C16.1666 3.73439 16.2498 3.77246 16.3112 3.83612C16.3521 3.87701 16.3834 3.92649 16.4029 3.98098C16.4223 4.03547 16.4294 4.0936 16.4236 4.15116Z" fill="#211715"/>
  <path d="M18.0898 4.49146C18.0863 4.55555 18.0687 4.61807 18.0381 4.67451C18.0075 4.73095 17.9648 4.77991 17.9131 4.81788C17.8395 4.86514 17.7505 4.88199 17.6648 4.86488C17.6063 4.85445 17.5512 4.83041 17.5037 4.7947C17.4563 4.75899 17.418 4.71262 17.3918 4.65933C17.3539 4.57378 17.3441 4.47842 17.3638 4.38696C17.3835 4.29549 17.4317 4.21262 17.5014 4.15025C17.5694 4.09371 17.6563 4.06499 17.7446 4.06987C17.8328 4.07475 17.916 4.11287 17.9773 4.17656C18.0183 4.21744 18.0496 4.2669 18.069 4.32136C18.0885 4.37582 18.0956 4.43392 18.0898 4.49146Z" fill="#211715"/>
  <path d="M18.0567 2.65026C18.1447 2.88415 18.2689 3.10278 18.4247 3.29815C18.5611 3.4546 18.7293 3.58014 18.918 3.66636C18.9826 3.70149 19.0579 3.71126 19.1292 3.69377C19.1812 3.67946 19.2279 3.65011 19.2633 3.60941C19.2987 3.56872 19.3213 3.51847 19.3283 3.46498C19.3352 3.41148 19.3263 3.35712 19.3025 3.3087C19.2787 3.26028 19.2412 3.21995 19.1946 3.19277C19.1018 3.14982 19.0139 3.09708 18.9323 3.03546L18.9871 3.07835C18.908 3.0163 18.837 2.94457 18.7757 2.86485L18.8184 2.92035C18.7189 2.78348 18.6367 2.63486 18.5735 2.47787L18.6009 2.54324C18.5955 2.53036 18.59 2.51734 18.5846 2.50418C18.5634 2.43622 18.5188 2.37797 18.4587 2.33974C18.4276 2.32156 18.3933 2.30969 18.3576 2.30479C18.3219 2.29989 18.2856 2.30208 18.2508 2.31122C18.216 2.32035 18.1833 2.33627 18.1546 2.35804C18.1259 2.37982 18.1018 2.40704 18.0836 2.43813C18.0647 2.4695 18.0524 2.50448 18.0477 2.54083C18.043 2.57719 18.0459 2.61413 18.0562 2.6493L18.0567 2.65026Z" fill="#211715"/>
  <path d="M18.1821 2.34124C17.8693 2.50568 17.3343 2.63381 17.0026 2.5509L17.167 2.95351C17.2725 2.76495 17.3876 2.50281 17.2113 2.3163C17.0078 2.10089 16.718 2.25258 16.485 2.3163C15.9436 2.45732 15.383 2.50966 14.8248 2.47129C14.4724 2.45169 14.4735 2.99982 14.8248 3.01942C15.1961 3.04147 15.5686 3.02862 15.9374 2.98105C16.1112 2.95817 16.2837 2.92857 16.4544 2.88855C16.543 2.868 16.6308 2.84516 16.7179 2.82004C16.7669 2.80633 16.8154 2.79057 16.8638 2.77482C16.8832 2.76865 16.9027 2.76221 16.922 2.75549C16.9604 2.74179 16.9608 2.74179 16.9234 2.75549L16.8025 2.68506L16.8229 2.70356L16.7525 2.5827C16.7251 2.51719 16.7763 2.52295 16.7451 2.5779C16.7269 2.61024 16.7111 2.64409 16.6929 2.67656C16.6723 2.71299 16.6602 2.75361 16.6575 2.79537C16.6549 2.83714 16.6617 2.87896 16.6776 2.9177C16.6934 2.95644 16.7178 2.99109 16.7489 3.01906C16.78 3.04702 16.8171 3.06757 16.8573 3.07917C17.1249 3.12998 17.4001 3.12531 17.6658 3.06546C17.9421 3.02409 18.21 2.93927 18.4598 2.81414C18.7719 2.6497 18.4953 2.17626 18.1831 2.34083L18.1821 2.34124Z" fill="#211715"/>
</svg>
