<svg width="23" height="23" viewBox="0 0 23 23" fill="none" xmlns="http://www.w3.org/2000/svg">
  <path fill-rule="evenodd" clip-rule="evenodd" d="M11.4999 18.2083C11.3094 18.2082 11.1267 18.1323 10.992 17.9975L7.87744 14.8829C7.80683 14.8171 7.75019 14.7378 7.7109 14.6496C7.67162 14.5614 7.6505 14.4663 7.64879 14.3698C7.64709 14.2733 7.66484 14.1774 7.70099 14.0879C7.73714 13.9984 7.79095 13.9171 7.8592 13.8489C7.92745 13.7806 8.00875 13.7268 8.09825 13.6906C8.18774 13.6545 8.2836 13.6367 8.38011 13.6384C8.47662 13.6402 8.57179 13.6613 8.65996 13.7006C8.74813 13.7398 8.82748 13.7965 8.89328 13.8671L11.4999 16.4738L14.1066 13.8671C14.1724 13.7965 14.2518 13.7398 14.3399 13.7006C14.4281 13.6613 14.5233 13.6402 14.6198 13.6384C14.7163 13.6367 14.8121 13.6545 14.9016 13.6906C14.9911 13.7268 15.0724 13.7806 15.1407 13.8489C15.2089 13.9171 15.2627 13.9984 15.2989 14.0879C15.335 14.1774 15.3528 14.2733 15.3511 14.3698C15.3494 14.4663 15.3283 14.5614 15.289 14.6496C15.2497 14.7378 15.1931 14.8171 15.1224 14.8829L12.0079 17.9975C11.8732 18.1323 11.6905 18.2082 11.4999 18.2083Z" fill="black"/>
  <path fill-rule="evenodd" clip-rule="evenodd" d="M11.5001 17.25C11.3095 17.25 11.1266 17.1743 10.9918 17.0395C10.8571 16.9047 10.7813 16.7219 10.7813 16.5312V9.34375C10.7813 9.15313 10.8571 8.97031 10.9918 8.83552C11.1266 8.70073 11.3095 8.625 11.5001 8.625C11.6907 8.625 11.8735 8.70073 12.0083 8.83552C12.1431 8.97031 12.2188 9.15313 12.2188 9.34375V16.5312C12.2188 16.7219 12.1431 16.9047 12.0083 17.0395C11.8735 17.1743 11.6907 17.25 11.5001 17.25ZM10.3022 5.75C10.3022 5.55938 10.3779 5.37656 10.5127 5.24177C10.6475 5.10698 10.8303 5.03125 11.0209 5.03125H11.9792C12.1699 5.03125 12.3527 5.10698 12.4875 5.24177C12.6223 5.37656 12.698 5.55938 12.698 5.75C12.698 5.94062 12.6223 6.12344 12.4875 6.25823C12.3527 6.39302 12.1699 6.46875 11.9792 6.46875H11.0209C10.8303 6.46875 10.6475 6.39302 10.5127 6.25823C10.3779 6.12344 10.3022 5.94062 10.3022 5.75ZM2.6355 5.75C2.6355 5.55938 2.71122 5.37656 2.84601 5.24177C2.98081 5.10698 3.16362 5.03125 3.35425 5.03125H4.31258C4.50321 5.03125 4.68602 5.10698 4.82081 5.24177C4.95561 5.37656 5.03133 5.55938 5.03133 5.75C5.03133 5.94062 4.95561 6.12344 4.82081 6.25823C4.68602 6.39302 4.50321 6.46875 4.31258 6.46875H3.35425C3.16362 6.46875 2.98081 6.39302 2.84601 6.25823C2.71122 6.12344 2.6355 5.94062 2.6355 5.75ZM14.1355 5.75C14.1355 5.55938 14.2112 5.37656 14.346 5.24177C14.4808 5.10698 14.6636 5.03125 14.8542 5.03125H15.8126C16.0032 5.03125 16.186 5.10698 16.3208 5.24177C16.4556 5.37656 16.5313 5.55938 16.5313 5.75C16.5313 5.94062 16.4556 6.12344 16.3208 6.25823C16.186 6.39302 16.0032 6.46875 15.8126 6.46875H14.8542C14.6636 6.46875 14.4808 6.39302 14.346 6.25823C14.2112 6.12344 14.1355 5.94062 14.1355 5.75ZM6.46883 5.75C6.46883 5.55938 6.54456 5.37656 6.67935 5.24177C6.81414 5.10698 6.99696 5.03125 7.18758 5.03125H8.14591C8.33654 5.03125 8.51936 5.10698 8.65415 5.24177C8.78894 5.37656 8.86466 5.55938 8.86466 5.75C8.86466 5.94062 8.78894 6.12344 8.65415 6.25823C8.51936 6.39302 8.33654 6.46875 8.14591 6.46875H7.18758C6.99696 6.46875 6.81414 6.39302 6.67935 6.25823C6.54456 6.12344 6.46883 5.94062 6.46883 5.75ZM17.9688 5.75C17.9688 5.55938 18.0446 5.37656 18.1793 5.24177C18.3141 5.10698 18.497 5.03125 18.6876 5.03125H19.6459C19.8365 5.03125 20.0194 5.10698 20.1541 5.24177C20.2889 5.37656 20.3647 5.55938 20.3647 5.75C20.3647 5.94062 20.2889 6.12344 20.1541 6.25823C20.0194 6.39302 19.8365 6.46875 19.6459 6.46875H18.6876C18.497 6.46875 18.3141 6.39302 18.1793 6.25823C18.0446 6.12344 17.9688 5.94062 17.9688 5.75Z" fill="black"/>
</svg>
