<svg width="24" height="24" viewBox="0 0 24 24" fill="none" xmlns="http://www.w3.org/2000/svg">
    <path d="M12.6437 4.6875C12.4733 4.6875 12.3264 4.58885 12.3062 4.45499C12.2532 4.10513 11.9873 3.33814 11.5433 3.33814C11.3554 3.33814 11.2031 3.22047 11.2031 3.07532C11.2031 2.93017 11.3554 2.8125 11.5433 2.8125C12.7127 2.8125 12.958 4.23266 12.9821 4.3946C13.0036 4.5388 12.8697 4.66914 12.683 4.68573C12.6698 4.68696 12.6567 4.6875 12.6437 4.6875Z" fill="#F7A872"/>
    <path d="M14.2031 2.47137V1.96875H13.7005C13.072 1.96875 12.5625 2.47825 12.5625 3.10676V3.60938H13.0651C13.6936 3.60938 14.2031 3.09987 14.2031 2.47137Z" fill="#16A34A"/>
    <path d="M14.2708 10.8142C15.6385 10.1637 16.584 8.76942 16.584 7.15406C16.584 4.91677 14.7703 2.81325 12.533 4.26235C10.2957 2.81325 8.48193 4.91677 8.48193 7.15406C8.48193 8.76938 9.4274 10.1637 10.7951 10.8142C11.051 10.9359 14.015 10.9359 14.2708 10.8142Z" fill="#DC2626"/>
    <path d="M21.5281 24H4.53014C3.51018 24 2.586 23.5861 1.91732 22.9174C1.24936 22.2488 0.835449 21.3253 0.835449 20.3046C0.835449 18.2641 2.48953 16.6092 4.53009 16.6092L13.6084 14.7152L21.5281 16.6092" fill="#1D4ED8"/>
    <path d="M22.0445 18.1143H11.6895V22.7668H22.0445V18.1143Z" fill="#E6E6E6"/>
    <path d="M23.1643 18.7209H13.7196C12.8468 18.7209 12.1365 19.4318 12.1365 20.3046C12.1365 21.1781 12.8467 21.8883 13.7196 21.8883H23.1643V24H13.7196C12.6996 24 11.7754 23.5861 11.1068 22.9174C10.4388 22.2487 10.0249 21.3253 10.0249 20.3046C10.0249 18.264 11.679 16.6092 13.7195 16.6092L17.1697 14.8301L21.7857 16.6092H23.1643V18.7209Z" fill="#3B82F6"/>
    <path d="M21.7859 10.9171H11.7054V10.9203C11.6769 10.9184 11.6483 10.9171 11.6192 10.9171H1.53882V12.6403H2.48649V14.8863H1.53882V16.6096H11.6193C11.6483 16.6096 11.6769 16.6082 11.7054 16.6063V16.6096H21.7859C22.4902 16.6096 23.0617 16.038 23.0617 15.3338V12.1922C23.0617 11.488 22.4901 10.9171 21.7859 10.9171Z" fill="#F4BD64"/>
    <path d="M11.6893 11.9967H2.48657V15.5294H11.6893V11.9967Z" fill="#CCCCCC"/>
    <path d="M1.53882 14.8862H11.1718V12.6403H1.53882V10.917H11.6193C12.3235 10.917 12.8951 11.488 12.8951 12.1922V15.3337C12.8951 16.0379 12.3235 16.6095 11.6193 16.6095H1.53882V14.8862Z" fill="#DDA758"/>
    <path d="M12.5609 10.8144C12.6401 10.8523 12.9785 10.8781 13.4162 10.8925C12.4402 10.9247 10.9715 10.8983 10.7951 10.8144C9.42745 10.1635 8.48193 8.76943 8.48193 7.15417C8.48193 5.10292 10.0064 3.16426 11.9836 3.97304C10.9341 4.4521 10.2477 5.77787 10.2477 7.15417C10.2477 8.76943 11.1932 10.1635 12.5609 10.8144Z" fill="#B91C1C"/>
</svg>