<svg width="87" height="28" viewBox="0 0 87 28" fill="none" xmlns="http://www.w3.org/2000/svg">
    <path d="M42.16 18.24C41.9693 18.3787 41.7613 18.3787 41.536 18.24L39.378 16.81C39.1527 16.6713 39.1527 16.5413 39.378 16.42C40.054 15.9867 40.6607 15.432 41.198 14.756C41.7353 14.0627 42.16 13.2567 42.472 12.338C42.8013 11.402 42.9747 10.3707 42.992 9.244H47.1C47.0307 10.4747 46.7447 11.6793 46.242 12.858C45.7567 14.0367 45.15 15.094 44.422 16.03C43.694 16.966 42.94 17.7027 42.16 18.24ZM47.62 17.902C47.3773 17.8847 47.2213 17.7633 47.152 17.538C46.996 17.0353 46.814 16.5587 46.606 16.108C46.398 15.64 46.138 15.2153 45.826 14.834C45.514 14.4527 45.1067 14.1407 44.604 13.898L45.8 12.26C46.4067 12.3987 46.9787 12.6067 47.516 12.884C48.0707 13.144 48.556 13.4473 48.972 13.794C49.4053 14.1407 49.7433 14.496 49.986 14.86C50.2287 15.224 50.35 15.5707 50.35 15.9C50.35 16.472 50.0727 16.9487 49.518 17.33C48.9633 17.7113 48.3307 17.902 47.62 17.902ZM40.262 10.726C40.002 10.778 39.8547 10.6827 39.82 10.44L39.378 7.996C39.3607 7.85733 39.3693 7.762 39.404 7.71C39.4387 7.658 39.5253 7.64067 39.664 7.658C40.3573 7.69267 41.1373 7.71867 42.004 7.736C42.8707 7.736 43.746 7.736 44.63 7.736C45.5313 7.71867 46.372 7.70133 47.152 7.684C47.9493 7.64933 48.6167 7.606 49.154 7.554L47.334 7.892L49.076 6.8C49.2667 6.696 49.4313 6.73933 49.57 6.93C49.7087 7.242 49.8647 7.62333 50.038 8.074C50.2113 8.50733 50.3847 9.04467 50.558 9.686C50.6967 10.1367 50.6967 10.414 50.558 10.518C50.4193 10.6047 49.9253 10.596 49.076 10.492C47.9667 10.388 46.8833 10.3273 45.826 10.31C44.7687 10.2927 43.772 10.3187 42.836 10.388C41.9 10.4573 41.042 10.57 40.262 10.726ZM42.914 5.838C42.8967 5.59533 43.0093 5.46533 43.252 5.448L47.152 5.188C47.412 5.17067 47.516 5.28333 47.464 5.526L47.126 8.62H43.096L42.914 5.838ZM53.73 14.834V11.246H58.02V14.834H53.73ZM56.694 18.448C56.4513 18.448 56.33 18.3267 56.33 18.084V6.852L56.122 4.564C56.1047 4.42533 56.1133 4.33 56.148 4.278C56.2 4.226 56.2953 4.2 56.434 4.2H60.958C61.218 4.2 61.2873 4.31267 61.166 4.538C61.0793 4.72867 60.984 4.91933 60.88 5.11C60.776 5.30067 60.672 5.48267 60.568 5.656V17.408C60.568 17.772 60.3947 18.032 60.048 18.188C59.7187 18.344 59.2507 18.422 58.644 18.422L56.694 18.448ZM51.806 18.474C51.5633 18.474 51.442 18.3527 51.442 18.11V7.346L51.234 5.11C51.2167 4.86733 51.3293 4.746 51.572 4.746H55.316C55.5587 4.746 55.6453 4.85867 55.576 5.084C55.524 5.27467 55.472 5.474 55.42 5.682C55.368 5.89 55.3247 6.06333 55.29 6.202V17.46C55.29 17.824 55.1167 18.084 54.77 18.24C54.4407 18.396 53.9727 18.474 53.366 18.474H51.806ZM44.656 23.258C44.4133 23.31 44.2573 23.206 44.188 22.946L43.408 20.008C43.3733 19.8693 43.3733 19.774 43.408 19.722C43.4427 19.67 43.5293 19.644 43.668 19.644C45.904 19.7133 48.0967 19.748 50.246 19.748C52.3953 19.748 54.588 19.7133 56.824 19.644L56.512 22.712C54.5533 22.6947 52.5513 22.738 50.506 22.842C48.478 22.9287 46.528 23.0673 44.656 23.258ZM55.42 27.73C55.1773 27.73 55.056 27.6087 55.056 27.366V22.218L56.33 19.8L57.474 19.228C57.6993 19.1067 57.916 19.1153 58.124 19.254C58.6267 19.5313 59.0947 19.852 59.528 20.216C59.9787 20.5627 60.3687 20.9267 60.698 21.308C60.854 21.4987 60.854 21.6893 60.698 21.88L60.256 22.4V26.404C60.256 26.768 60.0827 27.0453 59.736 27.236C59.4067 27.4267 58.9387 27.5567 58.332 27.626C57.8293 27.6607 57.318 27.6867 56.798 27.704C56.278 27.7387 55.8187 27.7473 55.42 27.73ZM75.4059 17.122C75.1632 17.1393 75.0419 17.0267 75.0419 16.784V6.696L74.9379 6.228C74.9205 6.08933 74.9292 5.994 74.9639 5.942C74.9985 5.89 75.0852 5.864 75.2239 5.864H78.1099C78.3699 5.864 78.4392 5.97667 78.3179 6.202C78.2832 6.28867 78.2399 6.384 78.1879 6.488C78.1532 6.57467 78.1185 6.66133 78.0839 6.748V15.822C78.0839 16.134 78.0492 16.368 77.9799 16.524C77.9279 16.68 77.7719 16.7927 77.5119 16.862C77.2692 16.9313 76.8619 16.992 76.2899 17.044L75.4059 17.122ZM65.2919 16.342V13.898H69.5819V16.342H65.2919ZM63.9399 17.252C63.6972 17.2693 63.5759 17.1567 63.5759 16.914V6.696L63.4719 6.228C63.4545 6.08933 63.4632 5.994 63.4979 5.942C63.5325 5.89 63.6192 5.864 63.7579 5.864H66.5399C66.7825 5.864 66.8692 5.97667 66.7999 6.202C66.7825 6.28867 66.7565 6.384 66.7219 6.488C66.7045 6.57467 66.6785 6.66133 66.6439 6.748V15.978C66.6439 16.29 66.6092 16.524 66.5399 16.68C66.4879 16.836 66.3319 16.9487 66.0719 17.018C65.8292 17.07 65.4219 17.122 64.8499 17.174L63.9399 17.252ZM72.7799 16.342V13.898H77.1739V16.342H72.7799ZM67.9179 17.122C67.6752 17.1393 67.5539 17.0267 67.5539 16.784V6.696L67.4499 6.228C67.4325 6.08933 67.4412 5.994 67.4759 5.942C67.5105 5.89 67.5972 5.864 67.7359 5.864H70.2579C70.3965 5.864 70.4832 5.89 70.5179 5.942C70.5699 5.994 70.5872 6.08933 70.5699 6.228C70.5525 6.31467 70.5352 6.40133 70.5179 6.488C70.5179 6.57467 70.5092 6.66133 70.4919 6.748V15.822C70.4919 16.134 70.4572 16.368 70.3879 16.524C70.3359 16.68 70.1799 16.7927 69.9199 16.862C69.6772 16.9313 69.2699 16.992 68.6979 17.044L67.9179 17.122ZM65.2919 11.454V9.036H69.5819V11.454H65.2919ZM71.5839 17.252C71.3412 17.2693 71.2199 17.1567 71.2199 16.914V6.696V6.228C71.2199 5.98533 71.3412 5.864 71.5839 5.864H74.0539C74.2965 5.864 74.3745 5.97667 74.2879 6.202C74.2705 6.306 74.2445 6.40133 74.2099 6.488C74.1925 6.57467 74.1665 6.66133 74.1319 6.748V15.978C74.1319 16.29 74.0972 16.524 74.0279 16.68C73.9759 16.836 73.8199 16.9487 73.5599 17.018C73.3172 17.0873 72.9099 17.148 72.3379 17.2L71.5839 17.252ZM72.7799 11.454V9.036H77.1739V11.454H72.7799ZM79.4879 18.058C79.2452 18.058 79.1239 17.9367 79.1239 17.694V6.852L78.9159 4.564C78.8985 4.42533 78.9072 4.33 78.9419 4.278C78.9939 4.226 79.0892 4.2 79.2279 4.2H84.1419C84.4019 4.2 84.4712 4.31267 84.3499 4.538C84.2632 4.746 84.1592 4.94533 84.0379 5.136C83.9339 5.32667 83.8299 5.5 83.7259 5.656V16.992C83.7259 17.356 83.5525 17.616 83.2059 17.772C82.8765 17.928 82.4085 18.0147 81.8019 18.032L79.4879 18.058ZM82.1399 14.21V11.792H82.6859L84.9219 10.934C85.1299 10.8473 85.2945 10.908 85.4159 11.116C85.6585 11.6013 85.8492 12.1127 85.9879 12.65C86.1265 13.17 86.2219 13.69 86.2739 14.21C86.2912 14.3487 86.2739 14.444 86.2219 14.496C86.1872 14.548 86.1005 14.5653 85.9619 14.548L82.1399 14.21ZM74.9639 27.808C73.3692 27.808 71.9219 27.626 70.6219 27.262C69.3219 26.9153 68.2905 26.3867 67.5279 25.676C66.7652 24.9827 66.3839 24.116 66.3839 23.076C66.3839 22.036 66.7652 21.1693 67.5279 20.476C68.2905 19.7827 69.3219 19.2627 70.6219 18.916C71.9219 18.552 73.3692 18.37 74.9639 18.37C76.5759 18.37 78.0232 18.552 79.3059 18.916C80.6059 19.2627 81.6285 19.7827 82.3739 20.476C83.1365 21.1693 83.5179 22.036 83.5179 23.076C83.5179 24.116 83.1365 24.9827 82.3739 25.676C81.6285 26.3867 80.6059 26.9153 79.3059 27.262C78.0232 27.626 76.5759 27.808 74.9639 27.808ZM74.9639 24.87C75.5532 24.87 76.0645 24.8007 76.4979 24.662C76.9312 24.5233 77.2692 24.324 77.5119 24.064C77.7545 23.7867 77.8759 23.4487 77.8759 23.05C77.8759 22.6687 77.7545 22.348 77.5119 22.088C77.2692 21.8107 76.9312 21.6027 76.4979 21.464C76.0645 21.3253 75.5532 21.256 74.9639 21.256C74.3919 21.256 73.8892 21.3253 73.4559 21.464C73.0225 21.6027 72.6845 21.8107 72.4419 22.088C72.1992 22.348 72.0779 22.6687 72.0779 23.05C72.0779 23.4487 72.1992 23.7867 72.4419 24.064C72.6845 24.324 73.0225 24.5233 73.4559 24.662C73.8892 24.8007 74.3919 24.87 74.9639 24.87Z" fill="#374151"/>
    <path d="M14.751 5.46875C14.5522 5.46875 14.3808 5.35365 14.3573 5.19749C14.2954 4.78931 13.9852 3.8945 13.4672 3.8945C13.248 3.8945 13.0703 3.75722 13.0703 3.58787C13.0703 3.41853 13.248 3.28125 13.4672 3.28125C14.8315 3.28125 15.1176 4.93811 15.1458 5.12703C15.1709 5.29527 15.0146 5.44733 14.7969 5.46668C14.7815 5.46812 14.7661 5.46875 14.751 5.46875Z" fill="#F7A872"/>
    <path d="M16.5703 2.88326V2.29688H15.9839C15.2507 2.29688 14.6562 2.8913 14.6562 3.62455V4.21094H15.2426C15.9759 4.21094 16.5703 3.61652 16.5703 2.88326Z" fill="#16A34A"/>
    <path d="M16.6492 12.6165C18.2448 11.8576 19.3479 10.231 19.3479 8.3464C19.3479 5.73622 17.2319 3.28212 14.6217 4.97273C12.0115 3.28212 9.89551 5.73622 9.89551 8.3464C9.89551 10.2309 10.9986 11.8576 12.5942 12.6165C12.8927 12.7585 16.3507 12.7585 16.6492 12.6165Z" fill="#DC2626"/>
    <path d="M25.1162 28H5.2852C4.09526 28 3.01704 27.5172 2.23692 26.7371C1.45762 25.9569 0.974731 24.8795 0.974731 23.6888C0.974731 21.3081 2.90449 19.3775 5.28515 19.3775L15.8765 17.1678L25.1161 19.3775" fill="#1D4ED8"/>
    <path d="M25.7186 21.1333H13.6377V26.5613H25.7186V21.1333Z" fill="#E6E6E6"/>
    <path d="M27.0251 21.841H16.0063C14.988 21.841 14.1594 22.6704 14.1594 23.6887C14.1594 24.7078 14.9879 25.5364 16.0063 25.5364H27.0251V27.9999H16.0063C14.8163 27.9999 13.7381 27.5171 12.958 26.737C12.1787 25.9569 11.6958 24.8795 11.6958 23.6887C11.6958 21.3081 13.6256 19.3774 16.0062 19.3774L20.0314 17.3018L25.4167 19.3774H27.0251V21.841Z" fill="#3B82F6"/>
    <path d="M25.4167 12.7365H13.6562V12.7403C13.6229 12.7381 13.5895 12.7365 13.5557 12.7365H1.79517V14.747H2.90078V17.3673H1.79517V19.3778H13.5557C13.5896 19.3778 13.623 19.3763 13.6562 19.374V19.3778H25.4168C26.2384 19.3778 26.9052 18.711 26.9052 17.8894V14.2243C26.9051 13.4026 26.2383 12.7365 25.4167 12.7365Z" fill="#F4BD64"/>
    <path d="M13.6376 13.9962H2.90112V18.1177H13.6376V13.9962Z" fill="#CCCCCC"/>
    <path d="M1.79517 17.3673H13.0337V14.747H1.79517V12.7365H13.5557C14.3773 12.7365 15.0441 13.4027 15.0441 14.2242V17.8893C15.0441 18.711 14.3773 19.3778 13.5557 19.3778H1.79517V17.3673Z" fill="#DDA758"/>
    <path d="M14.6543 12.6167C14.7467 12.661 15.1415 12.6911 15.6521 12.7079C14.5135 12.7454 12.8 12.7146 12.5942 12.6167C10.9986 11.8575 9.89551 10.231 9.89551 8.34652C9.89551 5.95339 11.6741 3.69163 13.9808 4.6352C12.7564 5.19411 11.9556 6.74084 11.9556 8.34652C11.9555 10.231 13.0586 11.8575 14.6543 12.6167Z" fill="#B91C1C"/>
</svg>