<svg width="38" height="19" viewBox="0 0 38 19" fill="none" xmlns="http://www.w3.org/2000/svg">
    <path d="M2.8 10.68C2.64 10.7733 2.48667 10.7667 2.34 10.66L1.14 9.78C0.993333 9.67333 1 9.57333 1.16 9.48C1.74667 9.12 2.27333 8.66 2.74 8.1C3.22 7.54 3.60667 6.9 3.9 6.18C4.19333 5.46 4.35333 4.69333 4.38 3.88H6.92C6.86667 4.77333 6.64667 5.66 6.26 6.54C5.87333 7.42 5.37333 8.22667 4.76 8.96C4.16 9.68 3.50667 10.2533 2.8 10.68ZM7.96 10.44C7.77333 10.44 7.64 10.36 7.56 10.2C7.38667 9.84 7.18 9.48 6.94 9.12C6.7 8.76 6.42667 8.42667 6.12 8.12C5.82667 7.81333 5.48667 7.56667 5.1 7.38L5.8 6.24C6.26667 6.38667 6.72 6.58 7.16 6.82C7.61333 7.04667 8.02 7.30667 8.38 7.6C8.74 7.88 9.02667 8.16 9.24 8.44C9.45333 8.72 9.56 8.97333 9.56 9.2C9.56 9.54667 9.4 9.84 9.08 10.08C8.76 10.32 8.38667 10.44 7.96 10.44ZM1.96 4.86C1.77333 4.88667 1.66667 4.80667 1.64 4.62L1.32 3.08C1.30667 2.97333 1.31333 2.9 1.34 2.86C1.36667 2.82 1.42667 2.80667 1.52 2.82C2.04 2.86 2.62667 2.88667 3.28 2.9C3.94667 2.91333 4.62667 2.92 5.32 2.92C6.01333 2.90667 6.66667 2.89333 7.28 2.88C7.90667 2.85333 8.44 2.82 8.88 2.78L7.66 3L8.82 2.3C8.96667 2.22 9.08667 2.25333 9.18 2.4C9.28667 2.6 9.4 2.85333 9.52 3.16C9.64 3.46667 9.76667 3.82 9.9 4.22C9.98 4.48667 9.98 4.65333 9.9 4.72C9.82 4.77333 9.52667 4.77333 9.02 4.72C8.18 4.65333 7.33333 4.61333 6.48 4.6C5.62667 4.58667 4.81333 4.6 4.04 4.64C3.26667 4.68 2.57333 4.75333 1.96 4.86ZM4.34 1.22C4.32667 1.03333 4.40667 0.933333 4.58 0.92L6.84 0.76C7.04 0.746666 7.12 0.833333 7.08 1.02L6.9 3.44H4.46L4.34 1.22ZM12.06 7.36V5.16H15.46V7.36H12.06ZM14.64 10.96C14.4533 10.9733 14.36 10.8867 14.36 10.7V1.56L14.26 0.299999C14.26 0.193333 14.2733 0.126666 14.3 0.0999997C14.34 0.0599994 14.4133 0.0399992 14.52 0.0399992H17.2C17.3867 0.0399992 17.4467 0.119999 17.38 0.28C17.3133 0.413333 17.24 0.546666 17.16 0.679999C17.0933 0.813333 17.0267 0.939999 16.96 1.06V10.28C16.96 10.5067 16.86 10.6733 16.66 10.78C16.4733 10.8733 16.1733 10.9267 15.76 10.94L14.64 10.96ZM10.88 10.98C10.7067 10.98 10.62 10.8933 10.62 10.72V1.96L10.52 0.719999C10.5067 0.546666 10.5933 0.46 10.78 0.46H13C13.1867 0.46 13.26 0.54 13.22 0.699999C13.1933 0.833332 13.16 0.973332 13.12 1.12C13.08 1.25333 13.0467 1.37333 13.02 1.48V10.3C13.02 10.54 12.9267 10.7067 12.74 10.8C12.5533 10.8933 12.2533 10.9467 11.84 10.96L10.88 10.98ZM5.2 14.22C5.01333 14.2467 4.89333 14.1667 4.84 13.98L4.36 12.2C4.33333 12.0933 4.33333 12.0267 4.36 12C4.38667 11.96 4.45333 11.94 4.56 11.94C6.29333 11.9667 8.00667 11.98 9.7 11.98C11.3933 11.98 13.1067 11.9667 14.84 11.94L14.68 13.88C13.04 13.88 11.42 13.9133 9.82 13.98C8.23333 14.0333 6.69333 14.1133 5.2 14.22ZM14.04 18.12C13.8533 18.12 13.76 18.0333 13.76 17.86V13.36L14.34 12.02L14.96 11.66C15.12 11.5667 15.28 11.56 15.44 11.64C15.72 11.8 16 11.9867 16.28 12.2C16.5733 12.4 16.8333 12.62 17.06 12.86C17.1933 12.98 17.2 13.1133 17.08 13.26L16.8 13.56V17.26C16.8 17.5 16.7 17.68 16.5 17.8C16.3133 17.92 16.0133 18.0067 15.6 18.06C15.3333 18.0733 15.06 18.0867 14.78 18.1C14.5133 18.1133 14.2667 18.12 14.04 18.12ZM29.1938 9.84C29.0071 9.85333 28.9138 9.76667 28.9138 9.58V1.98L28.8538 1.62C28.8404 1.51333 28.8471 1.44 28.8737 1.4C28.9004 1.36 28.9671 1.34 29.0738 1.34H30.8938C31.0938 1.34 31.1471 1.42667 31.0538 1.6C31.0404 1.65333 31.0138 1.71333 30.9738 1.78C30.9471 1.84667 30.9204 1.90667 30.8938 1.96V9.04C30.8938 9.22667 30.8738 9.36667 30.8338 9.46C30.8071 9.55333 30.7138 9.62 30.5538 9.66C30.4071 9.7 30.1604 9.74 29.8138 9.78L29.1938 9.84ZM20.9738 9.3V7.68H24.3738V9.3H20.9738ZM20.1538 9.92C19.9804 9.93333 19.8938 9.84667 19.8938 9.66V1.98L19.8338 1.62C19.8204 1.51333 19.8271 1.44 19.8538 1.4C19.8804 1.36 19.9471 1.34 20.0538 1.34H21.8138C22.0004 1.34 22.0671 1.42667 22.0138 1.6C22.0004 1.65333 21.9804 1.71333 21.9538 1.78C21.9404 1.84667 21.9204 1.90667 21.8938 1.96V9.12C21.8938 9.30667 21.8738 9.44667 21.8338 9.54C21.7938 9.63333 21.6938 9.7 21.5337 9.74C21.3871 9.78 21.1404 9.82 20.7938 9.86L20.1538 9.92ZM26.7938 9.3L26.8138 7.68H30.2738V9.3H26.7938ZM23.3538 9.84C23.1671 9.85333 23.0738 9.76667 23.0738 9.58V1.98L23.0138 1.62C23.0004 1.51333 23.0071 1.44 23.0338 1.4C23.0738 1.36 23.1404 1.34 23.2338 1.34H24.8538C24.9604 1.34 25.0271 1.36 25.0538 1.4C25.0804 1.44 25.0871 1.51333 25.0738 1.62C25.0604 1.67333 25.0471 1.73333 25.0338 1.8C25.0204 1.85333 25.0071 1.90667 24.9938 1.96V9.04C24.9938 9.22667 24.9738 9.36667 24.9338 9.46C24.8938 9.55333 24.7938 9.62 24.6338 9.66C24.4871 9.7 24.2471 9.74 23.9138 9.78L23.3538 9.84ZM20.9738 5.5V3.92H24.3738V5.5H20.9738ZM26.1138 9.92C25.9271 9.93333 25.8338 9.84667 25.8338 9.66V1.98V1.62C25.8204 1.43333 25.9071 1.34 26.0938 1.34H27.6938C27.8804 1.34 27.9404 1.42667 27.8738 1.6C27.8604 1.66667 27.8404 1.73333 27.8138 1.8C27.8004 1.85333 27.7804 1.90667 27.7538 1.96V9.12C27.7538 9.30667 27.7338 9.44667 27.6938 9.54C27.6538 9.63333 27.5538 9.70667 27.3938 9.76C27.2471 9.8 27.0004 9.83333 26.6538 9.86L26.1138 9.92ZM26.8138 5.5V3.92H30.2738V5.5H26.8138ZM32.2738 10.7C32.1004 10.7133 32.0138 10.6267 32.0138 10.44V1.56L31.9138 0.299999C31.9004 0.193333 31.9071 0.126666 31.9338 0.0999997C31.9738 0.0599994 32.0471 0.0399992 32.1538 0.0399992H35.0138C35.2004 0.0399992 35.2538 0.119999 35.1738 0.28C35.1071 0.426666 35.0338 0.566666 34.9538 0.699999C34.8871 0.819999 34.8204 0.939999 34.7538 1.06V10.02C34.7538 10.2467 34.6538 10.4133 34.4538 10.52C34.2671 10.6133 33.9671 10.6667 33.5538 10.68L32.2738 10.7ZM33.8138 7.48V5.86H34.7938L36.0538 5.32C36.2138 5.24 36.3404 5.28 36.4338 5.44C36.5804 5.74667 36.7004 6.07333 36.7938 6.42C36.8871 6.75333 36.9538 7.08667 36.9938 7.42C37.0071 7.52667 36.9938 7.6 36.9538 7.64C36.9271 7.68 36.8604 7.69333 36.7538 7.68L33.8138 7.48ZM28.4338 18.1C27.2738 18.1 26.2138 17.9667 25.2538 17.7C24.3071 17.4467 23.5538 17.06 22.9938 16.54C22.4471 16.02 22.1738 15.3733 22.1738 14.6C22.1738 13.8133 22.4471 13.1667 22.9938 12.66C23.5538 12.14 24.3071 11.7533 25.2538 11.5C26.2138 11.2333 27.2738 11.1 28.4338 11.1C29.6071 11.1 30.6604 11.2333 31.5938 11.5C32.5404 11.7533 33.2871 12.14 33.8338 12.66C34.3938 13.1667 34.6738 13.8133 34.6738 14.6C34.6738 15.3733 34.3938 16.02 33.8338 16.54C33.2871 17.06 32.5404 17.4467 31.5938 17.7C30.6604 17.9667 29.6071 18.1 28.4338 18.1ZM28.4338 16.24C29.0071 16.24 29.5138 16.18 29.9538 16.06C30.4071 15.94 30.7671 15.76 31.0338 15.52C31.3004 15.2667 31.4338 14.9533 31.4338 14.58C31.4338 14.2067 31.3004 13.9 31.0338 13.66C30.7671 13.42 30.4071 13.24 29.9538 13.12C29.5138 12.9867 29.0071 12.92 28.4338 12.92C27.8738 12.92 27.3671 12.9867 26.9138 13.12C26.4604 13.24 26.1004 13.42 25.8338 13.66C25.5671 13.9 25.4338 14.2067 25.4338 14.58C25.4338 14.9533 25.5671 15.2667 25.8338 15.52C26.1004 15.76 26.4604 15.94 26.9138 16.06C27.3671 16.18 27.8738 16.24 28.4338 16.24Z" fill="#1D4ED8"/>
</svg>