<svg width="30" height="30" viewBox="0 0 30 30" fill="none" xmlns="http://www.w3.org/2000/svg">
    <path d="M23.4375 20C23.4375 20.5178 23.0177 20.9375 22.5 20.9375H7.5C6.98224 20.9375 6.5625 20.5178 6.5625 20C6.5625 19.4822 6.98224 19.0625 7.5 19.0625H22.5C23.0177 19.0625 23.4375 19.4822 23.4375 20Z" fill="#D1D5DB"/>
    <path d="M23.4375 15C23.4375 15.5178 23.0177 15.9375 22.5 15.9375H7.5C6.98224 15.9375 6.5625 15.5178 6.5625 15C6.5625 14.4822 6.98224 14.0625 7.5 14.0625H22.5C23.0177 14.0625 23.4375 14.4822 23.4375 15Z" fill="#D1D5DB"/>
    <path d="M23.4375 10C23.4375 10.5178 23.0177 10.9375 22.5 10.9375H7.5C6.98224 10.9375 6.5625 10.5178 6.5625 10C6.5625 9.48224 6.98224 9.0625 7.5 9.0625H22.5C23.0177 9.0625 23.4375 9.48224 23.4375 10Z" fill="#D1D5DB"/>
</svg>