<svg width="18" height="18" viewBox="0 0 18 18" fill="none" xmlns="http://www.w3.org/2000/svg">
    <g clip-path="url(#clip0_107_2)">
        <path d="M7.5 2.5C7.5 1.3955 7.1045 0.5 6 0.5H2.5C0.5 0.5 0.5 7.5 2.5 7.5H6C7.1045 7.5 7.5 6.6045 7.5 5.5V2.5Z" fill="#1D4ED8"/>
        <path d="M17 1.5H16.5V6.5H17C17.1326 6.5 17.2598 6.55268 17.3536 6.64645C17.4473 6.74021 17.5 6.86739 17.5 7C17.5 7.13261 17.4473 7.25979 17.3536 7.35355C17.2598 7.44732 17.1326 7.5 17 7.5H5C3 7.5 3 0.5 5 0.5H17C17.1326 0.5 17.2598 0.552679 17.3536 0.646447C17.4473 0.740215 17.5 0.867392 17.5 1C17.5 1.13261 17.4473 1.25979 17.3536 1.35355C17.2598 1.44732 17.1326 1.5 17 1.5Z" fill="#5F9FFF"/>
        <path d="M17.086 1.5H5.5C4.5 1.5 4.5 6.5 5.5 6.5H17.086C17.638 6.5 17.638 1.5 17.086 1.5Z" fill="white"/>
        <path d="M5.75011 5.5H17.4251C17.3576 6.0875 17.2451 6.5 17.0861 6.5H5.50011C4.67461 6.5 4.53111 3.096 5.06861 1.906C4.87261 3.3855 5.09961 5.5 5.75011 5.5Z" fill="#CCD6DD"/>
        <path d="M6 14C6 13.4696 5.78929 12.9609 5.41421 12.5858C5.03914 12.2107 4.53043 12 4 12H2C0 12 0 17.5 2 17.5H4C4.53043 17.5 5.03914 17.2893 5.41421 16.9142C5.78929 16.5391 6 16.0304 6 15.5V14Z" fill="#226699"/>
        <path d="M15.5 13H15V16.5H15.5C15.6326 16.5 15.7598 16.5527 15.8536 16.6464C15.9473 16.7402 16 16.8674 16 17C16 17.1326 15.9473 17.2598 15.8536 17.3536C15.7598 17.4473 15.6326 17.5 15.5 17.5H3.5C1.5 17.5 1.5 12 3.5 12H15.5C15.6326 12 15.7598 12.0527 15.8536 12.1464C15.9473 12.2402 16 12.3674 16 12.5C16 12.6326 15.9473 12.7598 15.8536 12.8536C15.7598 12.9473 15.6326 13 15.5 13Z" fill="#55ACEE"/>
        <path d="M15.586 13H4C3 13 3 16.5 4 16.5H15.586C16.138 16.5 16.138 13 15.586 13Z" fill="white"/>
        <path d="M3.99997 15.5H15.9625C15.9055 16.0625 15.7805 16.5 15.586 16.5H3.99997C3.40347 16.5 3.16547 15.2555 3.28097 14.25C3.35897 14.929 3.59647 15.5 3.99997 15.5Z" fill="#CCD6DD"/>
        <path d="M10 9.5C10 8.96957 9.78929 8.46086 9.41421 8.08579C9.03914 7.71071 8.53043 7.5 8 7.5H3C1 7.5 1 12 3 12H8C8.53043 12 9.03914 11.7893 9.41421 11.4142C9.78929 11.0391 10 10.5304 10 10V9.5Z" fill="#F4C058"/>
        <path d="M17.5 8.5H17V11H17.5C17.6326 11 17.7598 11.0527 17.8536 11.1464C17.9473 11.2402 18 11.3674 18 11.5C18 11.6326 17.9473 11.7598 17.8536 11.8536C17.7598 11.9473 17.6326 12 17.5 12H7.5C5.5 12 5.5 7.5 7.5 7.5H17.5C17.6326 7.5 17.7598 7.55268 17.8536 7.64645C17.9473 7.74021 18 7.86739 18 8C18 8.13261 17.9473 8.25979 17.8536 8.35355C17.7598 8.44732 17.6326 8.5 17.5 8.5Z" fill="#F4D364"/>
        <path d="M17.586 8.5H8C7 8.5 7 11 8 11H17.586C18.138 11 18.138 8.5 17.586 8.5Z" fill="white"/>
        <path d="M7.99996 10H17.992C17.9595 10.531 17.825 11 17.586 11H7.99996C7.36296 11 7.13346 9.9865 7.30846 9.25C7.40746 9.6695 7.63696 10 7.99996 10Z" fill="#CCD6DD"/>
    </g>
    <defs>
        <clipPath id="clip0_107_2">
            <rect width="18" height="18" fill="white" transform="matrix(1 0 0 -1 0 18)"/>
        </clipPath>
    </defs>
</svg>